<svg xmlns="http://www.w3.org/2000/svg" width="318" height="360" viewBox="0 0 318 360" version="1.1"><path d="M 172.611 28.572 L 172.007 30.145 173.039 32.072 L 174.070 34 175.535 34 L 177 34 177 31.969 L 177 29.937 175.506 29.364 L 174.011 28.790 174.565 27.895 L 175.118 27 174.166 27 L 173.214 27 172.611 28.572 M 182.250 29.662 L 181 30.167 181 31.583 L 181 33 181.566 33 L 182.131 33 184.094 31.950 L 186.056 30.900 185.469 29.950 L 184.882 29 184.191 29.079 L 183.500 29.158 182.250 29.662 M 147.576 31.750 L 146.819 32.500 144.660 32.500 L 142.500 32.500 142.187 35.750 L 141.873 39 140.984 39 L 140.094 39 137.473 37.806 L 134.852 36.611 132.885 37.840 L 130.919 39.068 129.959 38.475 L 129 37.882 129 38.767 L 129 39.651 131.500 42 L 134 44.349 134 45.674 L 134 47 133.434 47 L 132.869 47 131.184 46.138 L 129.500 45.277 126.652 44.595 L 123.804 43.913 124.235 45.206 L 124.667 46.500 125.833 46.625 L 127 46.750 127.622 46.875 L 128.245 47 127 48.500 L 125.755 50 123.871 50 L 121.987 50 119.813 47.500 L 117.639 45 116.320 45 L 115 45 115 46.759 L 115 48.519 116.849 49.674 L 118.698 50.828 121.825 55.549 L 124.951 60.270 124.437 61.102 L 123.923 61.934 118.211 58.865 L 112.500 55.797 110.921 54.398 L 109.343 53 108.660 53 L 107.978 53 103.739 51.150 L 99.500 49.299 94.736 48.150 L 89.971 47 86.593 47 L 83.214 47 82.604 48.590 L 81.994 50.180 82.646 51.340 L 83.298 52.500 85.192 54.611 L 87.087 56.721 84.123 57.949 L 81.158 59.177 79.329 58.695 L 77.500 58.212 79.750 57.489 L 82 56.767 82 55.883 L 82 55 80.360 55 L 78.720 55 77.428 56.750 L 76.135 58.500 74.931 57.313 L 73.727 56.127 68.613 56.703 L 63.500 57.280 63.181 57.543 L 62.861 57.805 64.171 59.903 L 65.481 62 66.691 62 L 67.901 62 68.700 63.354 L 69.500 64.708 71.628 65.824 L 73.755 66.939 74.286 69.717 L 74.817 72.495 73.659 73.232 L 72.500 73.969 70.365 73.985 L 68.230 74 63.115 75.652 L 58 77.304 58 78.152 L 58 79 56.535 79 L 55.070 79 54.035 80.934 L 53 82.869 53 84.934 L 53 87 50.750 87.100 L 48.500 87.199 51 87.985 L 53.500 88.771 50.487 89.463 L 47.475 90.155 46.248 92.755 L 45.021 95.354 45.446 95.779 L 45.871 96.204 56.185 95.185 L 66.500 94.166 67.665 95.657 L 68.830 97.149 74.453 97.912 L 80.075 98.675 81.205 99.805 L 82.334 100.934 80.917 101.373 L 79.500 101.812 73 103.056 L 66.500 104.299 65.500 105.013 L 64.500 105.727 60.311 106.366 L 56.122 107.004 50.123 109.606 L 44.123 112.208 43.098 115.149 L 42.072 118.091 43.352 118.582 L 44.632 119.073 47.566 117.542 L 50.500 116.012 52.250 116.006 L 54 116 54 116.712 L 54 117.425 51.250 119.776 L 48.500 122.128 51.244 121.704 L 53.988 121.280 53.535 123.782 L 53.081 126.285 51.040 128.457 L 49 130.629 49 132.114 L 49 133.600 50.200 134.800 L 51.400 136 53.643 136 L 55.886 136 59.443 133.901 L 63 131.802 63 132.933 L 63 134.064 61.619 137.282 L 60.238 140.500 54.507 147 L 48.776 153.500 46.138 157.472 L 43.500 161.445 41.683 163.289 L 39.866 165.134 41.046 166.556 L 42.227 167.978 43.044 167.473 L 43.862 166.967 44.520 168.032 L 45.178 169.097 46.640 167.884 L 48.101 166.671 48.667 168.836 L 49.233 171 50.617 171 L 52 171 52.032 174.250 L 52.064 177.500 53.458 179.341 L 54.853 181.181 57.177 180.462 L 59.500 179.743 63 177.956 L 66.500 176.168 70.376 172.584 L 74.251 169 75.149 169 L 76.047 169 83.273 164.003 L 90.500 159.007 100.029 149.253 L 109.558 139.500 113.757 134.500 L 117.955 129.500 117.978 128.250 L 118 127 115.875 124.875 L 113.749 122.749 107.396 123.400 L 101.042 124.051 91.771 127.094 L 82.500 130.137 80 131.272 L 77.500 132.406 76.750 132.762 L 76 133.118 76 131.684 L 76 130.250 83.250 125.268 L 90.500 120.286 92.855 119.052 L 95.209 117.818 101.850 115.409 L 108.491 113 110.055 113 L 111.618 113 113.559 111.489 L 115.500 109.979 111.583 106.489 L 107.667 103 106.250 103 L 104.833 103 105.258 101.750 L 105.683 100.500 111.497 100.476 L 117.312 100.452 117.999 98.976 L 118.686 97.500 120.924 92.860 L 123.162 88.219 125.971 85.527 L 128.781 82.835 131.641 84.301 L 134.500 85.766 140 86.898 L 145.500 88.029 150 88.265 L 154.500 88.500 154.790 96.134 L 155.080 103.769 151.290 106.679 L 147.500 109.590 139.799 114.545 L 132.098 119.500 131.049 121.797 L 130 124.094 130.004 127.297 L 130.009 130.500 133.990 135.752 L 137.972 141.004 139.105 145.502 L 140.237 150 140.651 150 L 141.064 150 144.282 148.689 L 147.500 147.379 153.250 146.030 L 159 144.681 159 142.241 L 159 139.802 157.421 136.474 L 155.841 133.146 149.874 127.543 L 143.906 121.940 145.862 119.220 L 147.817 116.500 150.898 113.573 L 153.979 110.646 154.624 111.291 L 155.269 111.936 154.021 114.950 L 152.772 117.964 153.355 119.482 L 153.937 121 161.719 120.985 L 169.500 120.969 170.789 120.152 L 172.078 119.334 171.039 116.602 L 170 113.870 170 112.435 L 170 111 171.088 111 L 172.175 111 176.548 115.750 L 180.921 120.500 180.960 121.230 L 181 121.961 173.500 129.340 L 166 136.719 166 140.746 L 166 144.773 168.750 145.326 L 171.500 145.879 174.500 146.531 L 177.500 147.182 180.651 148.591 L 183.802 150 184.401 150 L 185 150 185 147.270 L 185 144.539 188.682 138.520 L 192.365 132.500 193.031 132 L 193.696 131.500 194.380 127.125 L 195.063 122.751 191.248 119.125 L 187.433 115.500 181.160 112.161 L 174.888 108.823 172.049 106.048 L 169.210 103.273 169.141 97.503 L 169.072 91.733 169.996 90.008 L 170.919 88.283 178.297 87.615 L 185.676 86.946 190.997 85.001 L 196.317 83.057 199.409 86.383 L 202.500 89.710 204.153 93.105 L 205.807 96.500 206.372 98.250 L 206.937 100 213.469 100 L 220 100 220 101.481 L 220 102.962 217.610 103.562 L 215.219 104.162 212.500 107 L 209.782 109.837 210.402 110.842 L 211.023 111.846 214.261 112.505 L 217.500 113.163 225.403 116.153 L 233.306 119.143 238.381 121.591 L 243.456 124.039 244.728 123.551 L 246 123.063 246 121.205 L 246 119.346 249.163 119.811 L 252.326 120.275 255.135 122.778 L 257.944 125.281 257.388 126.181 L 256.832 127.081 254.925 126.476 L 253.018 125.871 251.927 126.545 L 250.836 127.219 253.650 130.157 L 256.465 133.095 254.982 134.032 L 253.500 134.969 251.758 134.985 L 250.015 135 247.480 132.795 L 244.944 130.591 239.504 128.377 L 234.063 126.164 227.090 125.082 L 220.117 124 215.558 124 L 211 124 209 126 L 207 128 207.018 128.750 L 207.035 129.500 212.268 131.906 L 217.500 134.311 224.759 138.640 L 232.019 142.968 237.259 147.065 L 242.500 151.161 247.500 155.933 L 252.500 160.705 254.684 161.853 L 256.869 163 257.502 163 L 258.135 163 257.504 161.012 L 256.873 159.025 260.187 159.670 L 263.500 160.314 264.219 161.407 L 264.939 162.500 267.067 161.181 L 269.195 159.861 269.774 160.441 L 270.354 161.021 268.558 162.334 L 266.762 163.647 268.122 165.823 L 269.481 168 270.374 168 L 271.267 168 273.650 170.750 L 276.033 173.500 275.743 168.875 L 275.453 164.250 274.144 162.673 L 272.835 161.096 273.485 159.048 L 274.135 157 273.151 157 L 272.167 157 271.659 158.250 L 271.152 159.500 270.133 158.034 L 269.114 156.567 270.299 155.139 L 271.484 153.712 269.492 154.333 L 267.500 154.954 266.165 154.115 L 264.829 153.276 264.979 152.888 L 265.129 152.500 264.430 150.678 L 263.731 148.856 265.865 145.968 L 268 143.081 268 141.401 L 268 139.720 269.710 138.470 L 271.421 137.219 270.288 134.732 L 269.155 132.245 270.277 131.123 L 271.400 130 272.675 130 L 273.950 130 273.095 127.750 L 272.239 125.500 280.452 125.846 L 288.666 126.192 290.378 124.479 L 292.091 122.766 287.317 118.383 L 282.544 114 279.022 113.817 L 275.500 113.634 272.775 113.818 L 270.050 114.001 266.775 112.004 L 263.500 110.007 260 109.988 L 256.500 109.969 255.197 109.143 L 253.894 108.317 254.197 106.971 L 254.500 105.626 251 103.909 L 247.500 102.193 243.807 101.594 L 240.115 100.995 239.417 99.866 L 238.719 98.737 240.610 97.636 L 242.500 96.535 245 96.260 L 247.500 95.986 249 95.952 L 250.500 95.918 253.750 96.573 L 257 97.227 257.001 96.363 L 257.002 95.500 260.751 95.528 L 264.500 95.556 266.751 96.346 L 269.002 97.135 270.069 99.128 L 271.135 101.122 272.143 100.786 L 273.150 100.450 273.033 99.700 L 272.916 98.950 274.674 95.975 L 276.431 93 278.466 92.971 L 280.500 92.941 277 89.979 L 273.500 87.016 271.553 85.258 L 269.605 83.500 266.553 81.937 L 263.500 80.374 263.793 79.059 L 264.085 77.744 262.099 78.264 L 260.114 78.783 258.402 76.892 L 256.690 75 255.410 75 L 254.130 75 251.315 73.913 L 248.500 72.825 252.775 69.005 L 257.050 65.184 254.390 63.092 L 251.730 61 253.330 61 L 254.930 61 255.895 59.197 L 256.860 57.394 254.943 56.197 L 253.027 55 248.136 55 L 243.245 55 241.963 53.456 L 240.682 51.911 242.943 50.328 L 245.204 48.744 243.852 47.887 L 242.500 47.031 237.299 47.015 L 232.098 47 226.799 48.442 L 221.500 49.885 215.829 52.257 L 210.158 54.630 206.100 57.315 L 202.043 60 201.021 60 L 200 60 200 59.060 L 200 58.121 206.642 51.544 L 213.284 44.967 215.892 44.423 L 218.500 43.879 220.236 42.940 L 221.973 42 224.405 42 L 226.836 42 228.418 41.393 L 230 40.786 230 40.143 L 230 39.500 219.721 39.651 L 209.442 39.802 201.971 42.323 L 194.500 44.844 192.570 45.598 L 190.640 46.352 192.122 44.237 L 193.604 42.121 199.477 37.560 L 205.350 33 204.425 33.001 L 203.500 33.002 196.367 34.363 L 189.233 35.723 186.894 37.362 L 184.555 39 180.337 39 L 176.118 39 175.416 40.136 L 174.714 41.272 172.979 38.973 L 171.245 36.673 170.087 38.837 L 168.930 41 166.940 41 L 164.950 41 164.053 38.750 L 163.156 36.500 160.461 33.667 L 157.766 30.834 156.683 31.917 L 155.600 33 153.300 33 L 151 33 151 32 L 151 31 149.667 31 L 148.333 31 147.576 31.750 M 125.500 35 L 124.882 36 125.941 36 L 127 36 127 35 L 127 34 126.559 34 L 126.118 34 125.500 35 M 181 35.500 L 181 36 181.500 36 L 182 36 182 35.500 L 182 35 181.500 35 L 181 35 181 35.500 M 106 39.500 L 106 40 106.500 40 L 107 40 107 39.500 L 107 39 106.500 39 L 106 39 106 39.500 M 60.500 60 L 61.118 61 61.618 61 L 62.118 61 61.500 60 L 60.882 59 60.382 59 L 59.882 59 60.500 60 M 95 60.719 L 92.500 61.182 90.667 62.821 L 88.835 64.459 87.331 67.980 L 85.828 71.500 86.328 76.616 L 86.828 81.732 88.917 86.317 L 91.006 90.902 94.347 93.451 L 97.689 96 100.376 96 L 103.063 96 103.641 94.492 L 104.220 92.985 102.364 90.242 L 100.507 87.500 99.254 84.635 L 98 81.770 98 78.462 L 98 75.153 100.589 72.077 L 103.178 69 106.453 69 L 109.727 69 112.364 71.636 L 115 74.273 115 75.720 L 115 77.167 116.250 76.756 L 117.500 76.346 117.803 73.813 L 118.106 71.279 115.576 68.273 L 113.046 65.266 108.273 63.242 L 103.500 61.217 100.500 60.736 L 97.500 60.255 95 60.719 M 220.581 61.045 L 217.663 61.917 212.882 65.179 L 208.102 68.442 206.847 70.786 L 205.592 73.130 206.618 74.756 L 207.643 76.381 208.640 76.713 L 209.638 77.046 211.069 74.368 L 212.500 71.691 215.694 70.355 L 218.888 69.020 220.247 69.541 L 221.606 70.063 223.306 72.941 L 225.006 75.820 224.358 77.511 L 223.709 79.202 225.032 80.020 L 226.355 80.837 223.116 87.415 L 219.878 93.993 220.498 94.997 L 221.118 96 224.948 96 L 228.778 96 230.854 94.250 L 232.930 92.500 235.965 86.648 L 239 80.797 239 76.219 L 239 71.642 237.750 68.071 L 236.500 64.500 234.104 62.250 L 231.708 60 227.604 60.086 L 223.500 60.172 220.581 61.045 M 243 63.500 L 243 64 243.500 64 L 244 64 244 63.500 L 244 63 243.500 63 L 243 63 243 63.500 M 216 73.433 L 216 74.679 218.547 75.839 L 221.094 77 221.582 77 L 222.070 77 221.067 75.125 L 220.063 73.250 218.032 72.719 L 216 72.187 216 73.433 M 243.232 83 L 241.983 85 240.492 85 L 239 85 239 85.386 L 239 85.771 240.410 88.488 L 241.819 91.205 243.432 88.744 L 245.045 86.282 244.416 84.641 L 243.786 83 244.810 83 L 245.833 83 246.341 84.250 L 246.848 85.500 247.909 84 L 248.969 82.500 248.985 81.750 L 249 81 246.741 81 L 244.481 81 243.232 83 M 54 85.500 L 54 86 54.500 86 L 55 86 55 85.500 L 55 85 54.500 85 L 54 85 54 85.500 M 249.500 89 L 248.882 90 249.941 90 L 251 90 251 89 L 251 88 250.559 88 L 250.118 88 249.500 89 M 255 93.500 L 255 94 255.500 94 L 256 94 256 93.500 L 256 93 255.500 93 L 255 93 255 93.500 M 131.275 100.295 L 130.230 102.590 131.585 105.177 L 132.940 107.763 134.542 108.378 L 136.145 108.993 138.322 107.847 L 140.500 106.701 141.235 105.600 L 141.969 104.500 141.985 102.285 L 142 100.070 140.066 99.035 L 138.131 98 135.226 98 L 132.321 98 131.275 100.295 M 184.133 99.867 L 182.148 101.852 182.713 104.010 L 183.278 106.169 185.565 107.212 L 187.853 108.254 190.411 107.612 L 192.970 106.970 193.632 104.330 L 194.295 101.690 193.296 100.095 L 192.298 98.500 189.208 98.191 L 186.118 97.882 184.133 99.867 M 60 114 L 60 115.333 60.667 114.667 L 61.333 114 60.667 113.333 L 60 112.667 60 114 M 245 116 L 245 117.333 245.667 116.667 L 246.333 116 245.667 115.333 L 245 114.667 245 116 M 39 116.500 L 39 117 39.500 117 L 40 117 40 116.500 L 40 116 39.500 116 L 39 116 39 116.500 M 32 118.698 L 30.500 119.261 28.750 120.785 L 27 122.310 27 123.155 L 27 124 29.066 124 L 31.131 124 32.870 124.930 L 34.608 125.860 35.884 125.072 L 37.160 124.283 36.830 121.400 L 36.500 118.517 35 118.326 L 33.500 118.135 32 118.698 M 243 121 L 243 122.333 243.667 121.667 L 244.333 121 243.667 120.333 L 243 119.667 243 121 M 263.500 120.956 L 261.500 121.771 264.193 122.480 L 266.886 123.188 267.959 122.525 L 269.033 121.862 268.457 120.931 L 267.882 120 266.691 120.070 L 265.500 120.141 263.500 120.956 M 295 122.500 L 295 123 295.500 123 L 296 123 296 122.500 L 296 122 295.500 122 L 295 122 295 122.500 M 250 123.500 L 250 124 250.500 124 L 251 124 251 123.500 L 251 123 250.500 123 L 250 123 250 123.500 M 246.500 125 L 247.118 126 247.559 126 L 248 126 248 125 L 248 124 246.941 124 L 245.882 124 246.500 125 M 272.639 132.694 L 272 133.333 272 134.167 L 272 135 273.500 135 L 275 135 275 134.059 L 275 133.118 274.139 132.586 L 273.279 132.054 272.639 132.694 M 255 137.500 L 255 139 256 139 L 257 139 257 137.500 L 257 136 256 136 L 255 136 255 137.500 M 45.250 138.031 L 43 138.936 43 140.351 L 43 141.767 45.162 142.332 L 47.324 142.898 49.645 140.699 L 51.965 138.500 51.983 137.750 L 52 137 49.750 137.063 L 47.500 137.127 45.250 138.031 M 207 143.385 L 207 144.770 208.597 150.135 L 210.195 155.500 211.793 158.500 L 213.391 161.500 218.649 167.889 L 223.908 174.277 228.369 183.389 L 232.831 192.500 234.518 196.500 L 236.205 200.500 239.072 206.500 L 241.939 212.500 245.219 217.505 L 248.500 222.510 250.930 225.255 L 253.361 228 254.180 228 L 255 228 255 226.059 L 255 224.118 256 223.500 L 257 222.882 257 212 L 257 201.118 256.134 200.583 L 255.268 200.048 255.737 197.596 L 256.206 195.144 254.114 189.102 L 252.023 183.059 251.762 178.534 L 251.500 174.010 250.828 174.005 L 250.155 174 249.071 170.714 L 247.986 167.429 241.743 161.328 L 235.500 155.228 229.468 151.175 L 223.437 147.122 215.591 144.561 L 207.745 142 207.372 142 L 207 142 207 143.385 M 110.660 151.259 L 103.820 158.500 98.660 162.807 L 93.500 167.115 88 171.324 L 82.500 175.533 78.500 178.166 L 74.500 180.800 72 181.531 L 69.500 182.262 66.827 184.144 L 64.154 186.027 64.339 197.442 L 64.524 208.858 65.012 209.179 L 65.500 209.500 67.736 210.750 L 69.973 212 71.480 212 L 72.988 212 72.543 215.472 L 72.099 218.943 73.051 219.532 L 74.004 220.120 75.009 217.476 L 76.014 214.832 75.466 213.945 L 74.918 213.059 76.537 209.928 L 78.156 206.798 80.585 209.080 L 83.015 211.362 84.481 209.431 L 85.947 207.500 90.063 199 L 94.180 190.500 97.741 183.500 L 101.302 176.500 103.351 173.500 L 105.400 170.500 109.812 165.021 L 114.224 159.542 115.208 157.021 L 116.193 154.500 116.929 149.250 L 117.665 144 117.583 144.009 L 117.500 144.019 110.660 151.259 M 261 154 L 261 155 262 155 L 263 155 263 154 L 263 153 262 153 L 261 153 261 154 M 145.513 159.622 L 144 163.244 144 164.714 L 144 166.185 142 168.727 L 140 171.270 140.035 175.885 L 140.071 180.500 141.291 182.695 L 142.512 184.890 146.506 188.266 L 150.500 191.641 155 193.762 L 159.500 195.883 162.207 196.539 L 164.914 197.195 167.476 194.432 L 170.037 191.668 171.268 193.313 L 172.500 194.958 178.944 189.151 L 185.387 183.345 185.310 178.228 L 185.233 173.111 183.116 170.421 L 181 167.730 181 164.330 L 181 160.930 179.385 158.465 L 177.770 156 177.010 156 L 176.250 156 175.680 158.850 L 175.110 161.701 168.305 162.343 L 161.500 162.986 157 162.978 L 152.500 162.969 151.404 162.235 L 150.308 161.500 149.635 158.750 L 148.962 156 147.994 156 L 147.027 156 145.513 159.622 M 259 157.393 L 259 157.786 260.500 158.362 L 262 158.937 262 157.969 L 262 157 260.500 157 L 259 157 259 157.393 M 53 168.059 L 53 169.118 54 168.500 L 55 167.882 55 167.441 L 55 167 54 167 L 53 167 53 168.059 M 207.665 169.027 L 208.145 171.541 210.051 174.021 L 211.956 176.500 211.978 174.306 L 212 172.112 209.592 169.312 L 207.184 166.513 207.665 169.027 M 289.732 175.840 L 287.963 176.539 293.124 181.520 L 298.285 186.500 297.837 185.500 L 297.390 184.500 295.038 179.750 L 292.686 175 292.093 175.070 L 291.500 175.141 289.732 175.840 M 33.500 177 L 32.882 178 33.882 178 L 34.882 178 35.500 177 L 36.118 176 35.118 176 L 34.118 176 33.500 177 M 109.878 177.347 L 108.260 178.530 104.324 184.620 L 100.388 190.710 96.832 199.105 L 93.275 207.500 92.004 211 L 90.733 214.500 90.415 217.500 L 90.098 220.500 89.430 226 L 88.762 231.500 90.229 229.597 L 91.697 227.694 92.848 228.406 L 94 229.118 94 230.437 L 94 231.755 95.416 232.930 L 96.832 234.105 97.416 232.266 L 98 230.426 98.132 224.700 L 98.264 218.974 99.486 219.988 L 100.708 221.002 102.857 213.751 L 105.006 206.500 105.003 204.684 L 105 202.869 106.047 200.911 L 107.095 198.954 107.460 192.256 L 107.825 185.558 108.895 185.202 L 109.965 184.845 111.048 180.822 L 112.131 176.798 111.814 176.481 L 111.497 176.164 109.878 177.347 M 29 181.500 L 29 182 29.500 182 L 30 182 30 181.500 L 30 181 29.500 181 L 29 181 29 181.500 M 50 182 L 50 183.333 50.667 182.667 L 51.333 182 50.667 181.333 L 50 180.667 50 182 M 217 183.559 L 217 185.118 215.842 184.403 L 214.685 183.687 215.329 186.094 L 215.973 188.500 215.986 189.905 L 216 191.310 217.750 189.785 L 219.500 188.261 220.776 188.723 L 222.052 189.184 220.276 185.617 L 218.500 182.049 217.750 182.025 L 217 182 217 183.559 M 195.621 187.250 L 195.305 188.500 193.001 195.736 L 190.697 202.972 187.539 208.231 L 184.381 213.490 181.941 214.761 L 179.500 216.032 176.750 216.991 L 174 217.950 174.024 226.725 L 174.049 235.500 174.925 239.500 L 175.801 243.500 176.472 249.250 L 177.144 255 178.537 255 L 179.930 255 180.965 253.066 L 182 251.131 182 249.122 L 182 247.113 184.097 245.645 L 186.193 244.176 188.572 239.041 L 190.952 233.905 194.602 224.203 L 198.252 214.500 198.757 205.879 L 199.263 197.258 198.559 191.629 L 197.856 186 196.897 186 L 195.937 186 195.621 187.250 M 128.158 190 L 128.158 192.500 128.662 191.250 L 129.167 190 128.662 188.750 L 128.158 187.500 128.158 190 M 207.689 191.694 L 207.152 192.563 207.111 200.464 L 207.069 208.365 205.558 212.933 L 204.047 217.500 201.897 224 L 199.748 230.500 196.449 238 L 193.150 245.500 190.066 254 L 186.981 262.500 185.933 267.500 L 184.884 272.500 184.889 274.363 L 184.893 276.226 185.395 276.729 L 185.898 277.231 188.949 276.168 L 192 275.104 191.969 276.302 L 191.937 277.500 189.536 279.246 L 187.135 280.992 185.664 279.522 L 184.194 278.051 183.617 279.555 L 183.040 281.058 186.075 281.665 L 189.110 282.272 188.586 283.636 L 188.063 285 188.603 285 L 189.143 285 190.571 283.571 L 192 282.143 192 281.662 L 192 281.180 199 271.859 L 206 262.537 206 261.269 L 206 260 208.638 260 L 211.275 260 210.630 265.492 L 209.984 270.984 212.029 273.029 L 214.073 275.073 215.095 274.441 L 216.117 273.810 215.479 270.905 L 214.841 268 216.314 268 L 217.786 268 218.290 266.688 L 218.793 265.376 218.576 254.938 L 218.360 244.500 217.230 237.500 L 216.101 230.500 215.464 220.846 L 214.828 211.192 212.920 209.145 L 211.013 207.097 211.963 204.598 L 212.913 202.100 211.323 197.300 L 209.734 192.500 208.980 191.663 L 208.226 190.826 207.689 191.694 M 127.015 201.250 L 127.030 208.500 128.289 212.708 L 129.549 216.917 130.725 214.208 L 131.902 211.500 133.107 208.500 L 134.313 205.500 134.057 203.500 L 133.802 201.500 132.151 198.500 L 130.500 195.500 129.500 194.765 L 128.500 194.031 127.750 194.015 L 127 194 127.015 201.250 M 112.667 201.290 L 111.105 204.580 110.103 211.040 L 109.100 217.500 108.505 227.500 L 107.911 237.500 106.864 241.500 L 105.818 245.500 103.890 249.815 L 101.963 254.130 102.567 255.109 L 103.172 256.088 101.836 257.712 L 100.500 259.337 103.519 258.740 L 106.537 258.143 108.886 259.914 L 111.235 261.686 110.550 263.843 L 109.865 266 108.183 266.106 L 106.500 266.212 103.750 266.031 L 101 265.849 101 266.853 L 101 267.857 102.571 269.429 L 104.143 271 106.571 271 L 109 271 109 269.500 L 109 268 111.937 268 L 114.874 268 114.306 264.500 L 113.738 261 115.678 261 L 117.618 261 119.129 262.250 L 120.640 263.500 122.343 266.250 L 124.046 269 125.523 269 L 127 269 127 267.583 L 127 266.167 125.750 265.746 L 124.500 265.325 125.628 263.913 L 126.755 262.500 126.529 258 L 126.304 253.500 125.567 248.943 L 124.831 244.385 126.415 243.070 L 128 241.755 128 239.867 L 128 237.978 125.900 233.239 L 123.801 228.500 123.014 226.500 L 122.228 224.500 121.085 220.500 L 119.942 216.500 118.998 212 L 118.053 207.500 116.799 202.750 L 115.545 198 114.887 198 L 114.228 198 112.667 201.290 M 226.011 204.487 L 224.776 205.975 225.357 207.487 L 225.937 209 227.469 209 L 229 209 229 210.070 L 229 211.139 226.759 210.820 L 224.519 210.500 223.168 207.674 L 221.818 204.848 221.543 205.174 L 221.268 205.500 222.468 214.250 L 223.667 223 224.357 223.690 L 225.046 224.379 226.624 222.127 L 228.202 219.874 230.470 219.011 L 232.738 218.149 233.265 215.393 L 233.792 212.637 232.771 210.069 L 231.751 207.500 230.707 205.250 L 229.662 203 228.453 203 L 227.245 203 226.011 204.487 M 135.666 211.250 L 136.281 214.500 137.210 215.686 L 138.139 216.872 137.069 218.870 L 136 220.869 136 222.851 L 136 224.833 137.250 225.292 L 138.500 225.750 137.292 227.033 L 136.085 228.315 134.542 227.035 L 133 225.755 133.031 227.128 L 133.063 228.500 135.522 233.500 L 137.982 238.500 137.991 239.612 L 138 240.725 141.022 248.112 L 144.044 255.500 145.400 258.352 L 146.755 261.205 147.458 260.068 L 148.161 258.931 149.111 252.223 L 150.061 245.514 150.986 234.161 L 151.911 222.807 151.320 219.852 L 150.729 216.896 147.863 216.323 L 144.997 215.749 140.595 211.875 L 136.193 208 135.622 208 L 135.050 208 135.666 211.250 M 162.196 220.568 L 160.892 226.500 159.055 234.500 L 157.218 242.500 155.994 248.500 L 154.770 254.500 153.913 257.500 L 153.055 260.500 152.857 268 L 152.659 275.500 153.466 281.219 L 154.273 286.937 156.074 288.567 L 157.874 290.196 158.937 289.539 L 160 288.882 160 283.941 L 160 279 161.435 279 L 162.870 279 165.185 279.871 L 167.500 280.741 171.054 278.480 L 174.608 276.219 175.908 271.860 L 177.208 267.500 178.104 265.203 L 179 262.906 179 260.878 L 179 258.849 176.250 259.031 L 173.500 259.212 172.250 259.106 L 171 259 171 257.107 L 171 255.214 172.500 254.638 L 174 254.063 174 255.031 L 174 256 175.073 256 L 176.145 256 174.136 253.446 L 172.127 250.892 170.194 244.696 L 168.260 238.500 167.081 233 L 165.902 227.500 164.975 223.500 L 164.047 219.500 163.774 217.068 L 163.500 214.636 162.196 220.568 M 89 233 L 89 234 90.059 234 L 91.118 234 90.500 233 L 89.882 232 89.441 232 L 89 232 89 233 M 94 237.500 L 94 238 94.500 238 L 95 238 95 237.500 L 95 237 94.500 237 L 94 237 94 237.500 M 119 255.378 L 119 257 118 257 L 117 257 117 258.500 L 117 260 118 260 L 119 260 119 258.573 L 119 257.147 120.656 256.823 L 122.311 256.500 120.656 255.128 L 119 253.755 119 255.378 M 168.500 255 L 169.118 256 169.559 256 L 170 256 170 255 L 170 254 168.941 254 L 167.882 254 168.500 255 M 134.446 262.087 L 133.774 263.174 134.887 264.287 L 136 265.400 136 263.200 L 136 261 135.559 261 L 135.118 261 134.446 262.087 M 136.333 267.667 L 137 268.333 137.667 267.667 L 138.333 267 137 267 L 135.667 267 136.333 267.667 M 212 270.059 L 212 271.118 213 270.500 L 214 269.882 214 269.441 L 214 269 213 269 L 212 269 212 270.059 M 127.333 273.667 L 128 274.333 128.667 273.667 L 129.333 273 128 273 L 126.667 273 127.333 273.667 M 138.693 277.066 L 138.075 279.428 139.288 280.199 L 140.500 280.969 141.250 280.985 L 142 281 142 279.691 L 142 278.382 140.655 276.543 L 139.311 274.704 138.693 277.066 M 182.748 289.116 L 181.010 292.145 182.648 291.822 L 184.286 291.500 185.370 289.778 L 186.455 288.055 185.471 287.071 L 184.487 286.087 182.748 289.116 M 143 294.294 L 143 295.755 144.596 297.080 L 146.192 298.404 145.846 296.030 L 145.500 293.657 144.250 293.245 L 143 292.833 143 294.294 M 156 295.059 L 156 296.118 157 295.500 L 158 294.882 158 294.441 L 158 294 157 294 L 156 294 156 295.059 M 183 295 L 183 296.333 183.667 295.667 L 184.333 295 183.667 294.333 L 183 293.667 183 295" stroke="none" fill="#d6b136" fill-rule="evenodd"/><path d="M 168.487 16.189 L 165.704 18.378 161.133 16.734 L 156.562 15.090 155.823 16.287 L 155.083 17.483 153.842 16.242 L 152.600 15 150.455 15 L 148.310 15 146.646 16.839 L 144.982 18.677 141.741 18.499 L 138.500 18.321 134.737 17.547 L 130.975 16.773 125.639 17.439 L 120.302 18.106 117.476 20.303 L 114.650 22.500 112.999 24.076 L 111.347 25.653 109.631 26.311 L 107.915 26.970 103.565 25.806 L 99.214 24.642 96.077 27.281 L 92.941 29.920 89.661 30.536 L 86.381 31.151 85.303 34.009 L 84.224 36.867 80.362 37.485 L 76.500 38.103 72 39.144 L 67.500 40.185 65.174 41.303 L 62.847 42.420 63.271 44.635 L 63.694 46.850 56.744 50.425 L 49.795 54 48.501 54 L 47.207 54 44.257 57.360 L 41.307 60.720 37.154 62.552 L 33 64.385 33 66.192 L 33 68 30.750 68.015 L 28.500 68.031 27.115 68.908 L 25.729 69.785 26.384 72.393 L 27.038 75 28.019 75 L 29 75 29 76.567 L 29 78.135 27 77.567 L 25 77 23.195 76.494 L 21.389 75.989 19.195 78.033 L 17 80.078 17 81.133 L 17 82.187 18.931 82.692 L 20.862 83.197 21.399 84.599 L 21.937 86 21.028 86 L 20.118 86 19.500 85 L 18.882 84 18.048 84 L 17.214 84 16.671 85.414 L 16.128 86.829 18.064 90.626 L 20 94.423 20 96.152 L 20 97.882 21.062 98.538 L 22.123 99.194 23.062 101.663 L 24 104.131 22.965 106.065 L 21.930 108 20.965 108 L 20 108 20 106.500 L 20 105 19.122 105 L 18.245 105 17.287 106.250 L 16.328 107.500 14.648 113.006 L 12.968 118.511 7.907 121.964 L 2.847 125.417 1.865 127.251 L 0.884 129.085 3.192 131.009 L 5.500 132.933 8.532 132.967 L 11.563 133 11.567 139.750 L 11.571 146.500 11.874 149 L 12.176 151.500 11.471 153.750 L 10.767 156 12.383 156 L 14 156 14 157.107 L 14 158.214 15.427 157.666 L 16.854 157.119 18.010 158.511 L 19.165 159.904 18.488 162.037 L 17.811 164.170 20.049 166.552 L 22.287 168.935 19.394 172.559 L 16.500 176.183 14.581 179.224 L 12.661 182.265 13.683 184.970 L 14.704 187.675 13.102 190.749 L 11.500 193.822 7.774 199.161 L 4.049 204.500 5.774 205.795 L 7.500 207.089 9.689 206.541 L 11.877 205.993 12.498 206.996 L 13.118 208 15.230 208 L 17.343 208 19.169 206.347 L 20.995 204.694 26.248 202.897 L 31.500 201.100 38.775 199.909 L 46.051 198.717 46.695 199.362 L 47.339 200.006 47.535 204.753 L 47.731 209.500 48.481 223.505 L 49.231 237.511 47.616 241.378 L 46 245.244 46 247.092 L 46 248.941 43.362 254.708 L 40.724 260.475 39.891 263.380 L 39.058 266.285 39.590 267.145 L 40.121 268.005 42.311 266.878 L 44.500 265.750 46.758 263.693 L 49.015 261.637 52.758 260.251 L 56.500 258.864 59.778 258.031 L 63.057 257.198 64.490 256.009 L 65.923 254.819 66.602 252.679 L 67.281 250.539 69.329 247.769 L 71.376 245 72.688 245 L 74 245 74 246.414 L 74 247.827 70.088 256.064 L 66.175 264.300 66.952 266.400 L 67.729 268.500 66.151 271.809 L 64.573 275.118 66.037 276.044 L 67.500 276.969 71.816 276.985 L 76.131 277 78.114 275.939 L 80.096 274.878 79.409 272.715 L 78.723 270.551 82.295 273.276 L 85.867 276 89.183 276 L 92.500 276.001 92.600 280.654 L 92.699 285.307 94.541 286.653 L 96.382 288 97.191 288 L 98 288 98 285.500 L 98 283 98.884 283 L 99.767 283 103.446 287.072 L 107.125 291.144 106 292.500 L 104.874 293.856 106.371 296.751 L 107.868 299.646 109.389 300.908 L 110.909 302.170 113.631 306.835 L 116.353 311.500 117.927 312.719 L 119.500 313.938 121.250 311.858 L 123 309.778 123 308.234 L 123 306.690 125.058 308.553 L 127.117 310.416 132.012 318.458 L 136.907 326.500 145.763 335.750 L 154.618 345 155.591 345 L 156.565 345 161.782 350.368 L 167 355.737 167 356.952 L 167 358.167 168.172 357.776 L 169.344 357.385 172.423 351.443 L 175.501 345.500 176.714 342.500 L 177.927 339.500 179.214 337.504 L 180.500 335.509 184.250 330.866 L 188 326.222 188 324.018 L 188 321.813 190 321.290 L 192 320.767 192 319.383 L 192 318 190.933 318 L 189.866 318 193.590 313.455 L 197.315 308.910 200.174 309.538 L 203.033 310.166 204.475 306.714 L 205.918 303.262 208.345 303.726 L 210.772 304.190 212.578 300.095 L 214.385 296 215.192 296 L 216 296 216 297 L 216 298 217.500 298 L 219 298 219 296.500 L 219 295 217.800 295 L 216.600 295 217.612 293.988 L 218.625 292.975 221.813 293.613 L 225 294.250 225 295.156 L 225 296.063 223.500 296.638 L 222 297.214 222 298.548 L 222 299.882 223.101 300.562 L 224.202 301.243 226.201 299.243 L 228.201 297.244 227.023 295.044 L 225.846 292.844 226.392 291.422 L 226.937 290 228.719 289.996 L 230.500 289.993 233.850 287.950 L 237.199 285.908 239.325 286.204 L 241.451 286.500 241.828 284.598 L 242.205 282.696 243.853 281.098 L 245.500 279.500 248.190 277.132 L 250.881 274.763 254.466 276.979 L 258.051 279.194 259.525 278.629 L 261 278.063 261 274.924 L 261 271.786 262.406 272.326 L 263.812 272.865 265.302 271.183 L 266.791 269.500 268.268 265 L 269.745 260.500 271.093 255.128 L 272.441 249.756 274.662 248.744 L 276.883 247.732 276.804 244.116 L 276.725 240.500 279.404 234.820 L 282.083 229.139 285.438 229.684 L 288.793 230.228 289.464 228.114 L 290.135 226 291.500 226 L 292.865 226 293.494 224.019 L 294.123 222.038 294.107 212.769 L 294.091 203.500 294.622 200.764 L 295.153 198.028 298.027 199.514 L 300.901 201 302.546 201 L 304.191 201 307.208 198.852 L 310.225 196.704 309.425 190.602 L 308.626 184.500 308.839 179.825 L 309.053 175.151 308.026 174.516 L 307 173.882 306.993 176.191 L 306.987 178.500 305 175.500 L 303.013 172.500 303.007 170.864 L 303 169.229 304.404 166.523 L 305.808 163.817 304.813 160.658 L 303.818 157.500 302.983 153.500 L 302.147 149.500 299.671 145 L 297.196 140.500 298.066 138.250 L 298.936 136 300.421 136 L 301.906 136 304.343 134.890 L 306.779 133.779 307.868 131.390 L 308.957 129 310.420 129 L 311.882 129 312.456 128.072 L 313.029 127.144 310.058 122.822 L 307.087 118.500 303.794 115.434 L 300.500 112.369 297.469 110.272 L 294.439 108.176 294.268 105.903 L 294.096 103.629 297.798 100.407 L 301.500 97.184 298.945 94.342 L 296.391 91.500 292.382 86 L 288.374 80.500 287.255 77.852 L 286.136 75.204 282.162 72.971 L 278.188 70.738 277.771 67.892 L 277.353 65.047 278.071 64.273 L 278.789 63.500 279.447 60.374 L 280.105 57.247 278.458 55.600 L 276.811 53.953 274.155 52.610 L 271.500 51.267 267.500 50.007 L 263.500 48.747 261.750 47.219 L 260 45.690 260 42.380 L 260 39.070 257.979 37.989 L 255.959 36.908 254.916 37.552 L 253.874 38.196 252.187 36.719 L 250.500 35.241 247.300 33.621 L 244.099 32 241.109 32 L 238.118 32 237.568 31.110 L 237.019 30.221 233.259 29.565 L 229.500 28.909 226.900 28.620 L 224.301 28.331 220.552 25.472 L 216.804 22.613 210.902 22.187 L 205 21.760 205 19.939 L 205 18.118 204.250 17.694 L 203.500 17.270 195.589 18.146 L 187.678 19.023 186.352 20.123 L 185.025 21.224 183.513 20.643 L 182 20.063 182 18.031 L 182 16 179.059 16 L 176.118 16 175.500 15 L 174.882 14 173.076 14 L 171.270 14 168.487 16.189 M 172.611 28.572 L 172.007 30.145 173.039 32.072 L 174.070 34 175.535 34 L 177 34 177 31.969 L 177 29.937 175.506 29.364 L 174.011 28.790 174.565 27.895 L 175.118 27 174.166 27 L 173.214 27 172.611 28.572 M 182.250 29.662 L 181 30.167 181 31.583 L 181 33 181.566 33 L 182.131 33 184.094 31.950 L 186.056 30.900 185.469 29.950 L 184.882 29 184.191 29.079 L 183.500 29.158 182.250 29.662 M 147.576 31.750 L 146.819 32.500 144.660 32.500 L 142.500 32.500 142.187 35.750 L 141.873 39 140.984 39 L 140.094 39 137.473 37.806 L 134.852 36.611 132.885 37.840 L 130.919 39.068 129.959 38.475 L 129 37.882 129 38.767 L 129 39.651 131.500 42 L 134 44.349 134 45.674 L 134 47 133.434 47 L 132.869 47 131.184 46.138 L 129.500 45.277 126.652 44.595 L 123.804 43.913 124.235 45.206 L 124.667 46.500 125.833 46.625 L 127 46.750 127.622 46.875 L 128.245 47 127 48.500 L 125.755 50 123.871 50 L 121.987 50 119.813 47.500 L 117.639 45 116.320 45 L 115 45 115 46.759 L 115 48.519 116.849 49.674 L 118.698 50.828 121.825 55.549 L 124.951 60.270 124.437 61.102 L 123.923 61.934 118.211 58.865 L 112.500 55.797 110.921 54.398 L 109.343 53 108.660 53 L 107.978 53 103.739 51.150 L 99.500 49.299 94.736 48.150 L 89.971 47 86.593 47 L 83.214 47 82.604 48.590 L 81.994 50.180 82.646 51.340 L 83.298 52.500 85.192 54.611 L 87.087 56.721 84.123 57.949 L 81.158 59.177 79.329 58.695 L 77.500 58.212 79.750 57.489 L 82 56.767 82 55.883 L 82 55 80.360 55 L 78.720 55 77.428 56.750 L 76.135 58.500 74.931 57.313 L 73.727 56.127 68.613 56.703 L 63.500 57.280 63.181 57.543 L 62.861 57.805 64.171 59.903 L 65.481 62 66.691 62 L 67.901 62 68.700 63.354 L 69.500 64.708 71.628 65.824 L 73.755 66.939 74.286 69.717 L 74.817 72.495 73.659 73.232 L 72.500 73.969 70.365 73.985 L 68.230 74 63.115 75.652 L 58 77.304 58 78.152 L 58 79 56.535 79 L 55.070 79 54.035 80.934 L 53 82.869 53 84.934 L 53 87 50.750 87.100 L 48.500 87.199 51 87.985 L 53.500 88.771 50.487 89.463 L 47.475 90.155 46.248 92.755 L 45.021 95.354 45.446 95.779 L 45.871 96.204 56.185 95.185 L 66.500 94.166 67.665 95.657 L 68.830 97.149 74.453 97.912 L 80.075 98.675 81.205 99.805 L 82.334 100.934 80.917 101.373 L 79.500 101.812 73 103.056 L 66.500 104.299 65.500 105.013 L 64.500 105.727 60.311 106.366 L 56.122 107.004 50.123 109.606 L 44.123 112.208 43.098 115.149 L 42.072 118.091 43.352 118.582 L 44.632 119.073 47.566 117.542 L 50.500 116.012 52.250 116.006 L 54 116 54 116.712 L 54 117.425 51.250 119.776 L 48.500 122.128 51.244 121.704 L 53.988 121.280 53.535 123.782 L 53.081 126.285 51.040 128.457 L 49 130.629 49 132.114 L 49 133.600 50.200 134.800 L 51.400 136 53.643 136 L 55.886 136 59.443 133.901 L 63 131.802 63 132.933 L 63 134.064 61.619 137.282 L 60.238 140.500 54.507 147 L 48.776 153.500 46.138 157.472 L 43.500 161.445 41.683 163.289 L 39.866 165.134 41.046 166.556 L 42.227 167.978 43.044 167.473 L 43.862 166.967 44.520 168.032 L 45.178 169.097 46.640 167.884 L 48.101 166.671 48.667 168.836 L 49.233 171 50.617 171 L 52 171 52.032 174.250 L 52.064 177.500 53.458 179.341 L 54.853 181.181 57.177 180.462 L 59.500 179.743 63 177.956 L 66.500 176.168 70.376 172.584 L 74.251 169 75.149 169 L 76.047 169 83.273 164.003 L 90.500 159.007 100.029 149.253 L 109.558 139.500 113.757 134.500 L 117.955 129.500 117.978 128.250 L 118 127 115.875 124.875 L 113.749 122.749 107.396 123.400 L 101.042 124.051 91.771 127.094 L 82.500 130.137 80 131.272 L 77.500 132.406 76.750 132.762 L 76 133.118 76 131.684 L 76 130.250 83.250 125.268 L 90.500 120.286 92.855 119.052 L 95.209 117.818 101.850 115.409 L 108.491 113 110.055 113 L 111.618 113 113.559 111.489 L 115.500 109.979 111.583 106.489 L 107.667 103 106.250 103 L 104.833 103 105.258 101.750 L 105.683 100.500 111.497 100.476 L 117.312 100.452 117.999 98.976 L 118.686 97.500 120.924 92.860 L 123.162 88.219 125.971 85.527 L 128.781 82.835 131.641 84.301 L 134.500 85.766 140 86.898 L 145.500 88.029 150 88.265 L 154.500 88.500 154.790 96.134 L 155.080 103.769 151.290 106.679 L 147.500 109.590 139.799 114.545 L 132.098 119.500 131.049 121.797 L 130 124.094 130.004 127.297 L 130.009 130.500 133.990 135.752 L 137.972 141.004 139.105 145.502 L 140.237 150 140.651 150 L 141.064 150 144.282 148.689 L 147.500 147.379 153.250 146.030 L 159 144.681 159 142.241 L 159 139.802 157.421 136.474 L 155.841 133.146 149.874 127.543 L 143.906 121.940 145.862 119.220 L 147.817 116.500 150.898 113.573 L 153.979 110.646 154.624 111.291 L 155.269 111.936 154.021 114.950 L 152.772 117.964 153.355 119.482 L 153.937 121 161.719 120.985 L 169.500 120.969 170.789 120.152 L 172.078 119.334 171.039 116.602 L 170 113.870 170 112.435 L 170 111 171.088 111 L 172.175 111 176.548 115.750 L 180.921 120.500 180.960 121.230 L 181 121.961 173.500 129.340 L 166 136.719 166 140.746 L 166 144.773 168.750 145.326 L 171.500 145.879 174.500 146.531 L 177.500 147.182 180.651 148.591 L 183.802 150 184.401 150 L 185 150 185 147.270 L 185 144.539 188.682 138.520 L 192.365 132.500 193.031 132 L 193.696 131.500 194.380 127.125 L 195.063 122.751 191.248 119.125 L 187.433 115.500 181.160 112.161 L 174.888 108.823 172.049 106.048 L 169.210 103.273 169.141 97.503 L 169.072 91.733 169.996 90.008 L 170.919 88.283 178.297 87.615 L 185.676 86.946 190.997 85.001 L 196.317 83.057 199.409 86.383 L 202.500 89.710 204.153 93.105 L 205.807 96.500 206.372 98.250 L 206.937 100 213.469 100 L 220 100 220 101.481 L 220 102.962 217.610 103.562 L 215.219 104.162 212.500 107 L 209.782 109.837 210.402 110.842 L 211.023 111.846 214.261 112.505 L 217.500 113.163 225.403 116.153 L 233.306 119.143 238.381 121.591 L 243.456 124.039 244.728 123.551 L 246 123.063 246 121.205 L 246 119.346 249.163 119.811 L 252.326 120.275 255.135 122.778 L 257.944 125.281 257.388 126.181 L 256.832 127.081 254.925 126.476 L 253.018 125.871 251.927 126.545 L 250.836 127.219 253.650 130.157 L 256.465 133.095 254.982 134.032 L 253.500 134.969 251.758 134.985 L 250.015 135 247.480 132.795 L 244.944 130.591 239.504 128.377 L 234.063 126.164 227.090 125.082 L 220.117 124 215.558 124 L 211 124 209 126 L 207 128 207.018 128.750 L 207.035 129.500 212.268 131.906 L 217.500 134.311 224.759 138.640 L 232.019 142.968 237.259 147.065 L 242.500 151.161 247.500 155.933 L 252.500 160.705 254.684 161.853 L 256.869 163 257.502 163 L 258.135 163 257.504 161.012 L 256.873 159.025 260.187 159.670 L 263.500 160.314 264.219 161.407 L 264.939 162.500 267.067 161.181 L 269.195 159.861 269.774 160.441 L 270.354 161.021 268.558 162.334 L 266.762 163.647 268.122 165.823 L 269.481 168 270.374 168 L 271.267 168 273.650 170.750 L 276.033 173.500 275.743 168.875 L 275.453 164.250 274.144 162.673 L 272.835 161.096 273.485 159.048 L 274.135 157 273.151 157 L 272.167 157 271.659 158.250 L 271.152 159.500 270.133 158.034 L 269.114 156.567 270.299 155.139 L 271.484 153.712 269.492 154.333 L 267.500 154.954 266.165 154.115 L 264.829 153.276 264.979 152.888 L 265.129 152.500 264.430 150.678 L 263.731 148.856 265.865 145.968 L 268 143.081 268 141.401 L 268 139.720 269.710 138.470 L 271.421 137.219 270.288 134.732 L 269.155 132.245 270.277 131.123 L 271.400 130 272.675 130 L 273.950 130 273.095 127.750 L 272.239 125.500 280.452 125.846 L 288.666 126.192 290.378 124.479 L 292.091 122.766 287.317 118.383 L 282.544 114 279.022 113.817 L 275.500 113.634 272.775 113.818 L 270.050 114.001 266.775 112.004 L 263.500 110.007 260 109.988 L 256.500 109.969 255.197 109.143 L 253.894 108.317 254.197 106.971 L 254.500 105.626 251 103.909 L 247.500 102.193 243.807 101.594 L 240.115 100.995 239.417 99.866 L 238.719 98.737 240.610 97.636 L 242.500 96.535 245 96.260 L 247.500 95.986 249 95.952 L 250.500 95.918 253.750 96.573 L 257 97.227 257.001 96.363 L 257.002 95.500 260.751 95.528 L 264.500 95.556 266.751 96.346 L 269.002 97.135 270.069 99.128 L 271.135 101.122 272.143 100.786 L 273.150 100.450 273.033 99.700 L 272.916 98.950 274.674 95.975 L 276.431 93 278.466 92.971 L 280.500 92.941 277 89.979 L 273.500 87.016 271.553 85.258 L 269.605 83.500 266.553 81.937 L 263.500 80.374 263.793 79.059 L 264.085 77.744 262.099 78.264 L 260.114 78.783 258.402 76.892 L 256.690 75 255.410 75 L 254.130 75 251.315 73.913 L 248.500 72.825 252.775 69.005 L 257.050 65.184 254.390 63.092 L 251.730 61 253.330 61 L 254.930 61 255.895 59.197 L 256.860 57.394 254.943 56.197 L 253.027 55 248.136 55 L 243.245 55 241.963 53.456 L 240.682 51.911 242.943 50.328 L 245.204 48.744 243.852 47.887 L 242.500 47.031 237.299 47.015 L 232.098 47 226.799 48.442 L 221.500 49.885 215.829 52.257 L 210.158 54.630 206.100 57.315 L 202.043 60 201.021 60 L 200 60 200 59.060 L 200 58.121 206.642 51.544 L 213.284 44.967 215.892 44.423 L 218.500 43.879 220.236 42.940 L 221.973 42 224.405 42 L 226.836 42 228.418 41.393 L 230 40.786 230 40.143 L 230 39.500 219.721 39.651 L 209.442 39.802 201.971 42.323 L 194.500 44.844 192.570 45.598 L 190.640 46.352 192.122 44.237 L 193.604 42.121 199.477 37.560 L 205.350 33 204.425 33.001 L 203.500 33.002 196.367 34.363 L 189.233 35.723 186.894 37.362 L 184.555 39 180.337 39 L 176.118 39 175.416 40.136 L 174.714 41.272 172.979 38.973 L 171.245 36.673 170.087 38.837 L 168.930 41 166.940 41 L 164.950 41 164.053 38.750 L 163.156 36.500 160.461 33.667 L 157.766 30.834 156.683 31.917 L 155.600 33 153.300 33 L 151 33 151 32 L 151 31 149.667 31 L 148.333 31 147.576 31.750 M 125.500 35 L 124.882 36 125.941 36 L 127 36 127 35 L 127 34 126.559 34 L 126.118 34 125.500 35 M 181 35.500 L 181 36 181.500 36 L 182 36 182 35.500 L 182 35 181.500 35 L 181 35 181 35.500 M 106 39.500 L 106 40 106.500 40 L 107 40 107 39.500 L 107 39 106.500 39 L 106 39 106 39.500 M 60.500 60 L 61.118 61 61.618 61 L 62.118 61 61.500 60 L 60.882 59 60.382 59 L 59.882 59 60.500 60 M 95 60.719 L 92.500 61.182 90.667 62.821 L 88.835 64.459 87.331 67.980 L 85.828 71.500 86.328 76.616 L 86.828 81.732 88.917 86.317 L 91.006 90.902 94.347 93.451 L 97.689 96 100.376 96 L 103.063 96 103.641 94.492 L 104.220 92.985 102.364 90.242 L 100.507 87.500 99.254 84.635 L 98 81.770 98 78.462 L 98 75.153 100.589 72.077 L 103.178 69 106.453 69 L 109.727 69 112.364 71.636 L 115 74.273 115 75.720 L 115 77.167 116.250 76.756 L 117.500 76.346 117.803 73.813 L 118.106 71.279 115.576 68.273 L 113.046 65.266 108.273 63.242 L 103.500 61.217 100.500 60.736 L 97.500 60.255 95 60.719 M 220.581 61.045 L 217.663 61.917 212.882 65.179 L 208.102 68.442 206.847 70.786 L 205.592 73.130 206.618 74.756 L 207.643 76.381 208.640 76.713 L 209.638 77.046 211.069 74.368 L 212.500 71.691 215.694 70.355 L 218.888 69.020 220.247 69.541 L 221.606 70.063 223.306 72.941 L 225.006 75.820 224.358 77.511 L 223.709 79.202 225.032 80.020 L 226.355 80.837 223.116 87.415 L 219.878 93.993 220.498 94.997 L 221.118 96 224.948 96 L 228.778 96 230.854 94.250 L 232.930 92.500 235.965 86.648 L 239 80.797 239 76.219 L 239 71.642 237.750 68.071 L 236.500 64.500 234.104 62.250 L 231.708 60 227.604 60.086 L 223.500 60.172 220.581 61.045 M 243 63.500 L 243 64 243.500 64 L 244 64 244 63.500 L 244 63 243.500 63 L 243 63 243 63.500 M 216 73.433 L 216 74.679 218.547 75.839 L 221.094 77 221.582 77 L 222.070 77 221.067 75.125 L 220.063 73.250 218.032 72.719 L 216 72.187 216 73.433 M 243.232 83 L 241.983 85 240.492 85 L 239 85 239 85.386 L 239 85.771 240.410 88.488 L 241.819 91.205 243.432 88.744 L 245.045 86.282 244.416 84.641 L 243.786 83 244.810 83 L 245.833 83 246.341 84.250 L 246.848 85.500 247.909 84 L 248.969 82.500 248.985 81.750 L 249 81 246.741 81 L 244.481 81 243.232 83 M 54 85.500 L 54 86 54.500 86 L 55 86 55 85.500 L 55 85 54.500 85 L 54 85 54 85.500 M 249.500 89 L 248.882 90 249.941 90 L 251 90 251 89 L 251 88 250.559 88 L 250.118 88 249.500 89 M 255 93.500 L 255 94 255.500 94 L 256 94 256 93.500 L 256 93 255.500 93 L 255 93 255 93.500 M 131.275 100.295 L 130.230 102.590 131.585 105.177 L 132.940 107.763 134.542 108.378 L 136.145 108.993 138.322 107.847 L 140.500 106.701 141.235 105.600 L 141.969 104.500 141.985 102.285 L 142 100.070 140.066 99.035 L 138.131 98 135.226 98 L 132.321 98 131.275 100.295 M 184.133 99.867 L 182.148 101.852 182.713 104.010 L 183.278 106.169 185.565 107.212 L 187.853 108.254 190.411 107.612 L 192.970 106.970 193.632 104.330 L 194.295 101.690 193.296 100.095 L 192.298 98.500 189.208 98.191 L 186.118 97.882 184.133 99.867 M 60 114 L 60 115.333 60.667 114.667 L 61.333 114 60.667 113.333 L 60 112.667 60 114 M 245 116 L 245 117.333 245.667 116.667 L 246.333 116 245.667 115.333 L 245 114.667 245 116 M 39 116.500 L 39 117 39.500 117 L 40 117 40 116.500 L 40 116 39.500 116 L 39 116 39 116.500 M 32 118.698 L 30.500 119.261 28.750 120.785 L 27 122.310 27 123.155 L 27 124 29.066 124 L 31.131 124 32.870 124.930 L 34.608 125.860 35.884 125.072 L 37.160 124.283 36.830 121.400 L 36.500 118.517 35 118.326 L 33.500 118.135 32 118.698 M 243 121 L 243 122.333 243.667 121.667 L 244.333 121 243.667 120.333 L 243 119.667 243 121 M 263.500 120.956 L 261.500 121.771 264.193 122.480 L 266.886 123.188 267.959 122.525 L 269.033 121.862 268.457 120.931 L 267.882 120 266.691 120.070 L 265.500 120.141 263.500 120.956 M 295 122.500 L 295 123 295.500 123 L 296 123 296 122.500 L 296 122 295.500 122 L 295 122 295 122.500 M 250 123.500 L 250 124 250.500 124 L 251 124 251 123.500 L 251 123 250.500 123 L 250 123 250 123.500 M 246.500 125 L 247.118 126 247.559 126 L 248 126 248 125 L 248 124 246.941 124 L 245.882 124 246.500 125 M 272.639 132.694 L 272 133.333 272 134.167 L 272 135 273.500 135 L 275 135 275 134.059 L 275 133.118 274.139 132.586 L 273.279 132.054 272.639 132.694 M 255 137.500 L 255 139 256 139 L 257 139 257 137.500 L 257 136 256 136 L 255 136 255 137.500 M 45.250 138.031 L 43 138.936 43 140.351 L 43 141.767 45.162 142.332 L 47.324 142.898 49.645 140.699 L 51.965 138.500 51.983 137.750 L 52 137 49.750 137.063 L 47.500 137.127 45.250 138.031 M 207 143.385 L 207 144.770 208.597 150.135 L 210.195 155.500 211.793 158.500 L 213.391 161.500 218.649 167.889 L 223.908 174.277 228.369 183.389 L 232.831 192.500 234.518 196.500 L 236.205 200.500 239.072 206.500 L 241.939 212.500 245.219 217.505 L 248.500 222.510 250.930 225.255 L 253.361 228 254.180 228 L 255 228 255 226.059 L 255 224.118 256 223.500 L 257 222.882 257 212 L 257 201.118 256.134 200.583 L 255.268 200.048 255.737 197.596 L 256.206 195.144 254.114 189.102 L 252.023 183.059 251.762 178.534 L 251.500 174.010 250.828 174.005 L 250.155 174 249.071 170.714 L 247.986 167.429 241.743 161.328 L 235.500 155.228 229.468 151.175 L 223.437 147.122 215.591 144.561 L 207.745 142 207.372 142 L 207 142 207 143.385 M 110.660 151.259 L 103.820 158.500 98.660 162.807 L 93.500 167.115 88 171.324 L 82.500 175.533 78.500 178.166 L 74.500 180.800 72 181.531 L 69.500 182.262 66.827 184.144 L 64.154 186.027 64.339 197.442 L 64.524 208.858 65.012 209.179 L 65.500 209.500 67.736 210.750 L 69.973 212 71.480 212 L 72.988 212 72.543 215.472 L 72.099 218.943 73.051 219.532 L 74.004 220.120 75.009 217.476 L 76.014 214.832 75.466 213.945 L 74.918 213.059 76.537 209.928 L 78.156 206.798 80.585 209.080 L 83.015 211.362 84.481 209.431 L 85.947 207.500 90.063 199 L 94.180 190.500 97.741 183.500 L 101.302 176.500 103.351 173.500 L 105.400 170.500 109.812 165.021 L 114.224 159.542 115.208 157.021 L 116.193 154.500 116.929 149.250 L 117.665 144 117.583 144.009 L 117.500 144.019 110.660 151.259 M 261 154 L 261 155 262 155 L 263 155 263 154 L 263 153 262 153 L 261 153 261 154 M 145.513 159.622 L 144 163.244 144 164.714 L 144 166.185 142 168.727 L 140 171.270 140.035 175.885 L 140.071 180.500 141.291 182.695 L 142.512 184.890 146.506 188.266 L 150.500 191.641 155 193.762 L 159.500 195.883 162.207 196.539 L 164.914 197.195 167.476 194.432 L 170.037 191.668 171.268 193.313 L 172.500 194.958 178.944 189.151 L 185.387 183.345 185.310 178.228 L 185.233 173.111 183.116 170.421 L 181 167.730 181 164.330 L 181 160.930 179.385 158.465 L 177.770 156 177.010 156 L 176.250 156 175.680 158.850 L 175.110 161.701 168.305 162.343 L 161.500 162.986 157 162.978 L 152.500 162.969 151.404 162.235 L 150.308 161.500 149.635 158.750 L 148.962 156 147.994 156 L 147.027 156 145.513 159.622 M 259 157.393 L 259 157.786 260.500 158.362 L 262 158.937 262 157.969 L 262 157 260.500 157 L 259 157 259 157.393 M 53 168.059 L 53 169.118 54 168.500 L 55 167.882 55 167.441 L 55 167 54 167 L 53 167 53 168.059 M 207.665 169.027 L 208.145 171.541 210.051 174.021 L 211.956 176.500 211.978 174.306 L 212 172.112 209.592 169.312 L 207.184 166.513 207.665 169.027 M 289.732 175.840 L 287.963 176.539 293.124 181.520 L 298.285 186.500 297.837 185.500 L 297.390 184.500 295.038 179.750 L 292.686 175 292.093 175.070 L 291.500 175.141 289.732 175.840 M 33.500 177 L 32.882 178 33.882 178 L 34.882 178 35.500 177 L 36.118 176 35.118 176 L 34.118 176 33.500 177 M 109.878 177.347 L 108.260 178.530 104.324 184.620 L 100.388 190.710 96.832 199.105 L 93.275 207.500 92.004 211 L 90.733 214.500 90.415 217.500 L 90.098 220.500 89.430 226 L 88.762 231.500 90.229 229.597 L 91.697 227.694 92.848 228.406 L 94 229.118 94 230.437 L 94 231.755 95.416 232.930 L 96.832 234.105 97.416 232.266 L 98 230.426 98.132 224.700 L 98.264 218.974 99.486 219.988 L 100.708 221.002 102.857 213.751 L 105.006 206.500 105.003 204.684 L 105 202.869 106.047 200.911 L 107.095 198.954 107.460 192.256 L 107.825 185.558 108.895 185.202 L 109.965 184.845 111.048 180.822 L 112.131 176.798 111.814 176.481 L 111.497 176.164 109.878 177.347 M 29 181.500 L 29 182 29.500 182 L 30 182 30 181.500 L 30 181 29.500 181 L 29 181 29 181.500 M 50 182 L 50 183.333 50.667 182.667 L 51.333 182 50.667 181.333 L 50 180.667 50 182 M 217 183.559 L 217 185.118 215.842 184.403 L 214.685 183.687 215.329 186.094 L 215.973 188.500 215.986 189.905 L 216 191.310 217.750 189.785 L 219.500 188.261 220.776 188.723 L 222.052 189.184 220.276 185.617 L 218.500 182.049 217.750 182.025 L 217 182 217 183.559 M 195.621 187.250 L 195.305 188.500 193.001 195.736 L 190.697 202.972 187.539 208.231 L 184.381 213.490 181.941 214.761 L 179.500 216.032 176.750 216.991 L 174 217.950 174.024 226.725 L 174.049 235.500 174.925 239.500 L 175.801 243.500 176.472 249.250 L 177.144 255 178.537 255 L 179.930 255 180.965 253.066 L 182 251.131 182 249.122 L 182 247.113 184.097 245.645 L 186.193 244.176 188.572 239.041 L 190.952 233.905 194.602 224.203 L 198.252 214.500 198.757 205.879 L 199.263 197.258 198.559 191.629 L 197.856 186 196.897 186 L 195.937 186 195.621 187.250 M 128.158 190 L 128.158 192.500 128.662 191.250 L 129.167 190 128.662 188.750 L 128.158 187.500 128.158 190 M 207.689 191.694 L 207.152 192.563 207.111 200.464 L 207.069 208.365 205.558 212.933 L 204.047 217.500 201.897 224 L 199.748 230.500 196.449 238 L 193.150 245.500 190.066 254 L 186.981 262.500 185.933 267.500 L 184.884 272.500 184.889 274.363 L 184.893 276.226 185.395 276.729 L 185.898 277.231 188.949 276.168 L 192 275.104 191.969 276.302 L 191.937 277.500 189.536 279.246 L 187.135 280.992 185.664 279.522 L 184.194 278.051 183.617 279.555 L 183.040 281.058 186.075 281.665 L 189.110 282.272 188.586 283.636 L 188.063 285 188.603 285 L 189.143 285 190.571 283.571 L 192 282.143 192 281.662 L 192 281.180 199 271.859 L 206 262.537 206 261.269 L 206 260 208.638 260 L 211.275 260 210.630 265.492 L 209.984 270.984 212.029 273.029 L 214.073 275.073 215.095 274.441 L 216.117 273.810 215.479 270.905 L 214.841 268 216.314 268 L 217.786 268 218.290 266.688 L 218.793 265.376 218.576 254.938 L 218.360 244.500 217.230 237.500 L 216.101 230.500 215.464 220.846 L 214.828 211.192 212.920 209.145 L 211.013 207.097 211.963 204.598 L 212.913 202.100 211.323 197.300 L 209.734 192.500 208.980 191.663 L 208.226 190.826 207.689 191.694 M 127.015 201.250 L 127.030 208.500 128.289 212.708 L 129.549 216.917 130.725 214.208 L 131.902 211.500 133.107 208.500 L 134.313 205.500 134.057 203.500 L 133.802 201.500 132.151 198.500 L 130.500 195.500 129.500 194.765 L 128.500 194.031 127.750 194.015 L 127 194 127.015 201.250 M 112.667 201.290 L 111.105 204.580 110.103 211.040 L 109.100 217.500 108.505 227.500 L 107.911 237.500 106.864 241.500 L 105.818 245.500 103.890 249.815 L 101.963 254.130 102.567 255.109 L 103.172 256.088 101.836 257.712 L 100.500 259.337 103.519 258.740 L 106.537 258.143 108.886 259.914 L 111.235 261.686 110.550 263.843 L 109.865 266 108.183 266.106 L 106.500 266.212 103.750 266.031 L 101 265.849 101 266.853 L 101 267.857 102.571 269.429 L 104.143 271 106.571 271 L 109 271 109 269.500 L 109 268 111.937 268 L 114.874 268 114.306 264.500 L 113.738 261 115.678 261 L 117.618 261 119.129 262.250 L 120.640 263.500 122.343 266.250 L 124.046 269 125.523 269 L 127 269 127 267.583 L 127 266.167 125.750 265.746 L 124.500 265.325 125.628 263.913 L 126.755 262.500 126.529 258 L 126.304 253.500 125.567 248.943 L 124.831 244.385 126.415 243.070 L 128 241.755 128 239.867 L 128 237.978 125.900 233.239 L 123.801 228.500 123.014 226.500 L 122.228 224.500 121.085 220.500 L 119.942 216.500 118.998 212 L 118.053 207.500 116.799 202.750 L 115.545 198 114.887 198 L 114.228 198 112.667 201.290 M 226.011 204.487 L 224.776 205.975 225.357 207.487 L 225.937 209 227.469 209 L 229 209 229 210.070 L 229 211.139 226.759 210.820 L 224.519 210.500 223.168 207.674 L 221.818 204.848 221.543 205.174 L 221.268 205.500 222.468 214.250 L 223.667 223 224.357 223.690 L 225.046 224.379 226.624 222.127 L 228.202 219.874 230.470 219.011 L 232.738 218.149 233.265 215.393 L 233.792 212.637 232.771 210.069 L 231.751 207.500 230.707 205.250 L 229.662 203 228.453 203 L 227.245 203 226.011 204.487 M 135.666 211.250 L 136.281 214.500 137.210 215.686 L 138.139 216.872 137.069 218.870 L 136 220.869 136 222.851 L 136 224.833 137.250 225.292 L 138.500 225.750 137.292 227.033 L 136.085 228.315 134.542 227.035 L 133 225.755 133.031 227.128 L 133.063 228.500 135.522 233.500 L 137.982 238.500 137.991 239.612 L 138 240.725 141.022 248.112 L 144.044 255.500 145.400 258.352 L 146.755 261.205 147.458 260.068 L 148.161 258.931 149.111 252.223 L 150.061 245.514 150.986 234.161 L 151.911 222.807 151.320 219.852 L 150.729 216.896 147.863 216.323 L 144.997 215.749 140.595 211.875 L 136.193 208 135.622 208 L 135.050 208 135.666 211.250 M 162.196 220.568 L 160.892 226.500 159.055 234.500 L 157.218 242.500 155.994 248.500 L 154.770 254.500 153.913 257.500 L 153.055 260.500 152.857 268 L 152.659 275.500 153.466 281.219 L 154.273 286.937 156.074 288.567 L 157.874 290.196 158.937 289.539 L 160 288.882 160 283.941 L 160 279 161.435 279 L 162.870 279 165.185 279.871 L 167.500 280.741 171.054 278.480 L 174.608 276.219 175.908 271.860 L 177.208 267.500 178.104 265.203 L 179 262.906 179 260.878 L 179 258.849 176.250 259.031 L 173.500 259.212 172.250 259.106 L 171 259 171 257.107 L 171 255.214 172.500 254.638 L 174 254.063 174 255.031 L 174 256 175.073 256 L 176.145 256 174.136 253.446 L 172.127 250.892 170.194 244.696 L 168.260 238.500 167.081 233 L 165.902 227.500 164.975 223.500 L 164.047 219.500 163.774 217.068 L 163.500 214.636 162.196 220.568 M 89 233 L 89 234 90.059 234 L 91.118 234 90.500 233 L 89.882 232 89.441 232 L 89 232 89 233 M 94 237.500 L 94 238 94.500 238 L 95 238 95 237.500 L 95 237 94.500 237 L 94 237 94 237.500 M 119 255.378 L 119 257 118 257 L 117 257 117 258.500 L 117 260 118 260 L 119 260 119 258.573 L 119 257.147 120.656 256.823 L 122.311 256.500 120.656 255.128 L 119 253.755 119 255.378 M 168.500 255 L 169.118 256 169.559 256 L 170 256 170 255 L 170 254 168.941 254 L 167.882 254 168.500 255 M 265.991 256.511 L 264.755 258 265.628 257.985 L 266.500 257.969 267.857 257.110 L 269.214 256.250 268.220 255.636 L 267.227 255.022 265.991 256.511 M 134.446 262.087 L 133.774 263.174 134.887 264.287 L 136 265.400 136 263.200 L 136 261 135.559 261 L 135.118 261 134.446 262.087 M 274.362 263.500 L 273.786 265 272.393 265 L 271 265 271 265.941 L 271 266.882 271.866 267.417 L 272.733 267.953 274.214 266.226 L 275.696 264.500 276.407 263.250 L 277.118 262 276.028 262 L 274.937 262 274.362 263.500 M 25.600 265.600 L 24.953 267.286 25.453 267.786 L 25.953 268.286 26.600 266.600 L 27.247 264.914 26.747 264.414 L 26.247 263.914 25.600 265.600 M 136.333 267.667 L 137 268.333 137.667 267.667 L 138.333 267 137 267 L 135.667 267 136.333 267.667 M 212 270.059 L 212 271.118 213 270.500 L 214 269.882 214 269.441 L 214 269 213 269 L 212 269 212 270.059 M 127.333 273.667 L 128 274.333 128.667 273.667 L 129.333 273 128 273 L 126.667 273 127.333 273.667 M 138.693 277.066 L 138.075 279.428 139.288 280.199 L 140.500 280.969 141.250 280.985 L 142 281 142 279.691 L 142 278.382 140.655 276.543 L 139.311 274.704 138.693 277.066 M 182.748 289.116 L 181.010 292.145 182.648 291.822 L 184.286 291.500 185.370 289.778 L 186.455 288.055 185.471 287.071 L 184.487 286.087 182.748 289.116 M 143 294.294 L 143 295.755 144.596 297.080 L 146.192 298.404 145.846 296.030 L 145.500 293.657 144.250 293.245 L 143 292.833 143 294.294 M 156 295.059 L 156 296.118 157 295.500 L 158 294.882 158 294.441 L 158 294 157 294 L 156 294 156 295.059 M 183 295 L 183 296.333 183.667 295.667 L 184.333 295 183.667 294.333 L 183 293.667 183 295 M 205.250 311.662 L 204 312.167 204 313.615 L 204 315.063 205.513 315.643 L 207.025 316.224 208.525 314.979 L 210.025 313.735 208.890 312.367 L 207.755 311 207.128 311.079 L 206.500 311.158 205.250 311.662 M 211.048 323.442 L 209.811 324.933 210.238 326.214 L 210.665 327.495 211.913 325.162 L 213.162 322.829 212.724 322.390 L 212.285 321.952 211.048 323.442" stroke="none" fill="#4e3e25" fill-rule="evenodd"/></svg>