<?xml version="1.0" standalone="no"?>
<!DOCTYPE svg PUBLIC "-//W3C//DTD SVG 20010904//EN"
 "http://www.w3.org/TR/2001/REC-SVG-20010904/DTD/svg10.dtd">
<svg version="1.0" xmlns="http://www.w3.org/2000/svg"
 width="318.000000pt" height="360.000000pt" viewBox="0 0 318.000000 360.000000"
 preserveAspectRatio="xMidYMid meet">

<g transform="translate(0.000000,360.000000) scale(0.100000,-0.100000)"
fill="#000000" stroke="none">
<path d="M1668 3405 c-26 -19 -52 -35 -56 -35 -5 0 -26 14 -47 30 -44 35 -65
37 -90 10 -20 -22 -69 -26 -125 -10 -59 18 -136 2 -187 -37 -62 -47 -92 -55
-133 -35 -25 12 -35 13 -38 4 -2 -6 -29 -27 -61 -46 -31 -19 -65 -44 -76 -56
-10 -11 -30 -20 -44 -20 -30 -1 -134 -24 -150 -35 -6 -3 -9 -16 -5 -29 5 -20
-4 -27 -85 -65 -103 -47 -109 -59 -61 -111 17 -18 30 -36 30 -41 0 -16 -47
-58 -123 -109 -42 -28 -82 -61 -89 -73 -6 -12 -24 -37 -39 -55 -30 -34 -38
-67 -16 -75 9 -3 9 -11 -2 -38 -7 -19 -14 -46 -15 -61 -1 -31 -47 -71 -70 -62
-11 4 -19 -2 -25 -19 -5 -13 -28 -39 -51 -57 -39 -31 -40 -33 -24 -51 9 -11
23 -19 29 -19 7 0 24 -9 39 -21 14 -11 26 -16 26 -10 0 6 5 11 10 11 6 0 10
-12 10 -26 0 -20 -4 -24 -19 -19 -23 7 -34 -6 -25 -30 5 -11 14 -15 30 -11 29
8 59 -32 50 -67 -3 -12 1 -36 10 -52 8 -16 12 -35 9 -43 -3 -8 3 -23 14 -34
20 -18 20 -20 4 -56 -10 -20 -25 -48 -34 -62 -27 -40 -57 -109 -88 -203 -25
-75 -27 -89 -14 -94 8 -3 18 -2 22 4 3 5 20 18 38 28 24 14 35 16 45 7 9 -7
54 -10 127 -9 113 2 113 2 123 -23 5 -14 7 -44 3 -67 -7 -46 7 -85 28 -77 23
8 10 -173 -18 -261 -30 -91 -30 -87 -6 -102 16 -10 31 -6 92 23 41 20 98 52
127 71 61 41 77 36 77 -26 0 -26 -15 -67 -44 -125 -23 -46 -40 -89 -37 -95 4
-6 23 -5 54 4 106 30 101 30 99 -17 -2 -39 0 -43 25 -48 33 -6 33 -6 261 -239
103 -105 187 -198 187 -207 0 -23 40 -92 57 -98 11 -5 11 -1 -1 22 -8 15 -25
47 -37 72 -21 44 -21 45 -1 25 21 -20 74 -106 112 -182 12 -23 29 -44 37 -47
18 -7 53 25 53 49 0 8 3 15 8 15 15 0 62 -84 62 -111 0 -15 7 -32 15 -39 13
-11 22 -7 55 25 21 21 41 49 45 63 3 13 17 39 31 57 13 17 24 37 24 43 0 31
55 125 79 135 14 6 38 24 54 40 22 23 33 27 57 22 26 -6 30 -3 36 20 4 17 18
31 40 40 19 8 38 24 43 37 5 13 32 41 60 63 28 22 51 43 51 47 0 12 43 49 68
59 12 5 22 16 22 25 0 9 18 36 40 61 22 25 40 50 40 54 0 18 33 8 76 -22 l46
-31 24 23 c29 27 30 40 4 114 -32 94 -26 115 35 115 13 0 27 5 30 10 4 6 19 9
33 8 21 -2 28 2 30 20 3 17 10 22 32 22 21 0 33 8 49 34 12 18 21 39 21 46 0
8 6 21 14 29 17 20 73 227 81 304 6 56 7 57 38 57 18 0 51 -10 75 -22 l43 -23
25 29 c22 25 25 35 20 77 -3 26 -22 83 -41 127 -19 43 -41 117 -49 164 -18
104 -36 177 -48 201 -13 26 5 44 53 52 22 4 53 18 68 31 16 13 34 24 40 24 6
0 11 6 11 14 0 30 -50 85 -139 150 l-93 70 44 22 c71 36 75 47 43 97 -51 76
-108 137 -170 182 -89 63 -93 70 -63 103 14 15 31 38 38 51 11 22 10 27 -9 42
-12 10 -45 25 -74 35 -57 18 -100 51 -93 70 5 12 -23 44 -38 44 -4 0 -35 14
-70 30 -34 17 -103 40 -152 52 -49 12 -91 25 -94 29 -11 14 -95 49 -119 49
-44 0 -69 11 -74 31 -7 25 -56 23 -179 -9 -32 -8 -40 -7 -55 10 -18 20 -65 48
-80 48 -4 0 -29 -16 -55 -35z m90 -107 c16 -16 15 -28 -3 -28 -8 0 -15 2 -15
4 0 2 -3 11 -6 20 -7 19 7 21 24 4z m77 -8 c-3 -5 -10 -10 -16 -10 -5 0 -9 5
-9 10 0 6 7 10 16 10 8 0 12 -4 9 -10z m-282 -34 c21 -5 27 -3 27 11 0 14 4
13 25 -7 14 -13 24 -30 23 -39 -2 -8 9 -22 24 -30 24 -14 28 -14 47 3 19 17
20 17 30 -2 6 -11 7 -22 4 -26 -3 -3 1 -6 10 -6 10 0 17 8 17 19 0 22 19 31
63 31 17 0 38 7 47 15 9 8 40 19 70 25 97 18 103 11 34 -41 -25 -19 -50 -42
-55 -52 -9 -16 -7 -17 18 -11 15 4 48 16 73 27 35 16 71 21 158 23 66 1 110
-1 107 -7 -4 -5 -21 -9 -40 -9 -19 0 -37 -4 -40 -10 -3 -5 -18 -10 -32 -10
-20 0 -44 -18 -95 -70 -95 -98 -92 -115 8 -55 32 19 63 35 69 35 7 0 26 7 44
16 103 51 290 60 228 11 -8 -7 -18 -22 -22 -34 -6 -22 -5 -22 59 -16 46 4 70
2 81 -7 22 -18 18 -38 -7 -42 -13 -2 -22 -9 -21 -16 4 -15 -44 -16 -49 -1 -3
9 -9 9 -25 0 -27 -14 -83 -15 -83 -1 0 21 -49 30 -107 18 -100 -20 -189 -89
-181 -141 4 -30 32 -33 47 -3 7 13 24 29 38 35 29 13 73 14 73 2 0 -5 3 -18 6
-28 5 -17 5 -17 -10 1 -8 10 -19 15 -25 12 -5 -4 -12 -2 -16 4 -4 6 -11 8 -16
5 -19 -12 -8 -35 25 -50 19 -9 42 -27 50 -40 14 -21 14 -27 1 -57 -9 -18 -20
-40 -27 -49 -18 -25 -3 -46 38 -52 45 -7 63 5 102 72 23 40 26 42 39 25 7 -10
13 -24 13 -32 0 -8 8 -21 18 -28 16 -12 16 -14 -6 -36 -12 -14 -22 -29 -22
-35 0 -13 23 -23 53 -23 33 0 87 -23 87 -37 0 -7 -5 -13 -10 -13 -6 0 -22 -7
-35 -16 -21 -14 -22 -18 -10 -30 7 -8 21 -14 29 -14 9 0 16 -5 16 -11 0 -5 5
-7 12 -3 9 6 9 9 0 12 -30 10 -7 22 42 22 37 0 67 -7 100 -25 48 -26 82 -32
88 -16 4 12 68 1 68 -12 0 -13 48 -57 62 -57 4 0 8 -6 8 -14 0 -23 -105 -30
-161 -10 -44 16 -47 19 -38 41 13 35 12 35 -21 18 -43 -22 -70 -20 -71 8 0 12
-3 16 -6 10 -2 -7 -13 -13 -24 -13 -11 0 -19 -7 -19 -16 0 -8 4 -13 9 -9 6 3
24 -3 42 -14 27 -16 30 -21 16 -27 -15 -5 -15 -8 -1 -21 8 -8 22 -12 31 -9 18
7 53 -2 53 -14 0 -4 -10 -10 -22 -14 -18 -4 -20 -8 -10 -18 14 -14 16 -54 2
-63 -5 -3 -10 -17 -10 -31 0 -13 -9 -33 -20 -44 -11 -11 -20 -29 -20 -39 0
-11 -9 -23 -20 -26 -11 -3 -20 -11 -20 -16 0 -12 -41 -69 -50 -69 -3 0 -32 25
-65 55 -109 100 -211 166 -403 262 -2 1 1 10 7 21 15 29 48 33 155 22 116 -12
209 -47 249 -93 19 -21 30 -28 34 -19 2 6 12 12 21 11 10 0 12 -3 6 -5 -7 -3
-10 -14 -7 -25 4 -14 13 -19 34 -17 16 1 29 5 29 8 0 3 -16 29 -35 59 -19 29
-35 54 -35 56 0 2 12 3 28 2 22 -2 26 2 24 18 -3 22 -49 65 -69 65 -7 0 -13 6
-13 14 0 8 -10 22 -22 30 -20 14 -23 14 -40 -4 -10 -10 -18 -31 -18 -45 0 -30
-15 -32 -67 -6 -52 26 -161 67 -201 76 -59 12 -52 50 16 83 19 9 35 22 36 27
0 6 -28 11 -64 13 l-65 3 -28 57 c-15 32 -40 70 -55 85 l-28 27 -60 -20 c-32
-11 -59 -20 -59 -19 0 7 -142 -16 -147 -25 -4 -6 -8 -40 -8 -77 0 -61 2 -67
33 -95 17 -16 58 -42 89 -58 31 -16 73 -42 92 -58 32 -26 36 -35 36 -74 0 -37
-9 -58 -51 -120 -37 -55 -48 -80 -43 -96 5 -18 3 -20 -17 -15 -13 3 -57 14
-96 24 l-73 17 0 40 c0 36 7 46 77 114 54 52 74 78 67 87 -59 79 -77 100 -87
100 -13 0 -15 -50 -3 -77 10 -21 -33 -31 -119 -26 -57 3 -60 4 -59 28 1 14 5
36 9 49 6 18 4 22 -7 20 -16 -4 -98 -95 -98 -108 0 -5 20 -25 45 -45 25 -21
56 -52 69 -69 30 -40 44 -105 25 -111 -8 -2 -43 -13 -79 -25 -36 -11 -72 -22
-81 -26 -13 -5 -18 2 -22 32 -4 23 -25 62 -52 98 -51 68 -59 115 -25 157 11
14 67 56 125 93 l106 67 -3 82 -3 81 -70 6 c-38 4 -96 16 -128 27 -53 19 -61
20 -82 6 -12 -8 -37 -45 -56 -82 -18 -37 -34 -69 -36 -71 -2 -2 -30 -3 -63 -2
-48 2 -60 -1 -60 -13 0 -9 6 -16 13 -16 23 0 93 -67 82 -78 -5 -5 -37 -17 -70
-26 -116 -33 -315 -147 -315 -182 0 -18 15 -18 48 1 47 25 205 74 263 81 62 7
94 -4 104 -36 5 -16 -12 -42 -74 -113 -98 -115 -228 -236 -261 -244 -14 -3
-27 -9 -30 -13 -3 -4 -30 -24 -60 -45 -30 -21 -61 -46 -70 -56 -31 -36 -144
-80 -125 -49 3 6 0 10 -8 10 -8 0 -17 14 -21 32 -5 24 -1 37 14 53 25 27 25
35 1 35 -11 0 -23 -9 -26 -21 -5 -15 -10 -18 -18 -10 -8 8 -6 15 9 25 10 8 16
18 12 22 -4 4 -14 2 -21 -5 -12 -9 -77 -6 -77 5 0 2 15 24 33 49 17 26 39 57
47 69 8 13 37 47 63 76 46 51 83 117 71 129 -3 3 -23 -4 -44 -17 -49 -28 -64
-28 -83 1 -14 22 -14 26 8 53 14 16 24 33 25 38 0 5 8 18 17 28 14 15 14 19 3
16 -9 -2 -15 5 -15 17 0 14 6 19 18 17 9 -2 17 2 17 9 0 6 8 9 20 6 13 -3 20
0 20 9 0 8 5 14 12 14 8 0 9 3 1 11 -7 7 -21 3 -48 -15 -21 -14 -49 -26 -62
-26 -13 0 -33 -5 -44 -11 -11 -5 -27 -9 -36 -7 -15 3 -15 5 -1 18 8 8 13 20
11 26 -2 6 11 18 29 27 29 13 61 24 173 57 17 4 57 14 90 21 33 7 64 16 69 20
12 11 -28 26 -86 34 -32 4 -48 11 -48 20 0 12 -15 14 -72 11 -40 -3 -77 -5
-83 -6 -47 -10 -67 34 -21 46 14 3 33 15 43 26 16 18 17 20 0 29 -14 8 -15 13
-4 29 6 11 17 20 24 20 7 0 13 5 13 10 0 13 41 30 110 45 52 11 55 13 52 41
-1 16 -14 38 -28 50 -26 21 -23 34 7 34 10 0 21 5 24 11 5 7 -7 9 -39 5 -33
-3 -50 0 -61 10 -8 9 -15 17 -15 19 0 9 108 0 125 -12 25 -17 44 -16 88 2 l36
15 -25 25 c-16 16 -24 34 -22 48 3 19 9 22 48 21 85 -3 178 -36 265 -93 57
-38 94 -55 101 -48 8 7 -22 73 -36 82 -17 11 -11 25 11 25 29 0 59 18 59 36 0
12 7 14 30 9 33 -7 36 0 18 40 -17 38 6 59 49 44 27 -9 34 -8 51 9 11 11 18
23 15 26 -4 3 1 6 9 6 9 0 21 7 28 15 11 13 15 14 29 2 9 -8 28 -17 44 -21z
m-371 -131 c0 -5 -5 -11 -11 -13 -6 -2 -11 4 -11 13 0 9 5 15 11 13 6 -2 11
-8 11 -13z m1371 -171 c7 -7 -17 -34 -30 -34 -4 -1 -21 -19 -36 -42 -19 -27
-23 -39 -13 -35 9 4 19 -1 25 -11 9 -16 11 -15 28 1 26 23 28 22 54 -20 13
-20 25 -31 27 -25 5 17 22 15 22 -2 0 -15 21 -26 51 -26 10 0 19 -6 19 -12 0
-7 15 -21 32 -31 31 -18 32 -19 14 -33 -17 -12 -23 -12 -42 1 -31 20 -35 19
-29 -8 6 -22 3 -23 -45 -24 -35 0 -53 4 -57 13 -6 15 -43 20 -43 5 0 -5 7 -11
15 -15 22 -8 18 -26 -5 -26 -11 0 -20 4 -20 9 0 5 -13 12 -30 16 -31 7 -42 25
-15 25 8 0 24 9 35 20 11 11 22 15 25 10 12 -19 26 -10 19 13 -3 12 -8 23 -9
25 -6 7 -63 -28 -68 -40 -2 -7 -8 -9 -13 -5 -5 4 -3 11 3 15 7 4 16 26 21 49
l9 41 -31 -9 c-17 -5 -36 -16 -42 -24 -16 -21 -34 -19 -34 5 0 11 4 20 9 20
17 0 22 34 6 42 -8 5 -15 22 -15 38 0 16 -4 32 -10 35 -5 3 -10 12 -10 19 0
15 86 21 95 7 3 -6 18 -4 38 4 37 16 41 17 50 9z m170 -308 c6 -16 -2 -28 -14
-20 -12 7 -11 34 0 34 5 0 11 -6 14 -14z m-1320 -40 c36 -27 10 -86 -38 -86
-42 0 -66 40 -49 84 8 20 62 21 87 2z m530 -7 c29 -46 -26 -95 -79 -70 -29 13
-34 64 -6 80 24 15 73 9 85 -10z m-1565 -212 c5 -24 -18 -51 -32 -37 -5 5 -20
10 -31 10 -33 0 -38 12 -13 32 29 22 72 20 76 -5z m137 -177 c-3 -5 -15 -10
-26 -10 -10 0 -19 5 -19 10 0 6 12 10 26 10 14 0 23 -4 19 -10z m1660 -59 c62
-16 161 -80 236 -151 72 -69 103 -129 118 -230 4 -25 13 -55 19 -67 21 -38 40
-333 22 -333 -6 0 -10 -9 -10 -20 0 -27 -10 -25 -44 6 -21 20 -25 29 -15 35
11 6 10 9 -4 15 -26 10 -88 108 -126 199 -62 151 -116 249 -175 320 -62 74
-74 97 -100 184 -21 70 -21 71 12 61 15 -5 45 -13 67 -19z m-1000 -56 c-8 -65
-16 -82 -74 -153 -62 -76 -87 -119 -171 -287 -36 -71 -71 -129 -77 -128 -7 2
-10 -4 -7 -12 4 -8 2 -15 -4 -15 -18 0 -31 26 -25 48 11 42 -22 23 -41 -23
-22 -51 -41 -57 -86 -25 -37 27 -41 55 -12 108 18 34 20 42 7 42 -8 0 -15 -7
-15 -16 0 -8 -5 -12 -10 -9 -7 5 -8 11 -1 19 6 7 7 26 1 51 -11 47 -9 50 37
72 34 16 38 16 65 0 29 -17 29 -16 39 11 5 15 8 30 7 33 -3 5 35 37 163 136
20 15 72 64 115 109 44 45 82 82 87 83 4 0 5 -19 2 -44z m1505 -63 c0 -13 -12
-22 -22 -16 -10 6 -1 24 13 24 5 0 9 -4 9 -8z m-1174 -24 c10 -34 21 -38 104
-38 114 0 149 8 156 36 3 13 12 24 18 24 16 0 36 -43 36 -78 0 -15 9 -42 21
-61 13 -22 21 -51 21 -80 0 -43 -4 -49 -59 -98 -32 -29 -61 -53 -65 -53 -4 0
-10 9 -13 20 -8 26 -22 26 -30 -1 -4 -11 -16 -24 -28 -28 -27 -10 -98 7 -117
28 -22 23 -67 51 -84 51 -8 0 -23 16 -35 36 -27 45 -27 110 -1 144 11 14 20
33 20 43 0 23 28 77 40 77 5 0 12 -10 16 -22z m1234 -48 c0 -5 -4 -10 -9 -10
-6 0 -13 5 -16 10 -3 6 1 10 9 10 9 0 16 -4 16 -10z m-616 -93 c5 -21 4 -21
-14 3 -23 29 -26 48 -6 31 8 -6 16 -22 20 -34z m822 -44 c4 -16 12 -35 18 -43
10 -13 9 -13 -9 0 -36 26 -55 54 -42 62 20 13 26 9 33 -19z m-1835 -26 c-1 -4
-1 -16 -1 -27 0 -11 -6 -20 -14 -20 -19 0 -28 -27 -16 -49 10 -20 11 -17 -26
-166 -32 -134 -41 -152 -50 -109 -5 25 -12 33 -36 38 -29 6 -30 8 -25 46 5 40
80 204 104 228 7 7 20 26 30 42 15 27 36 37 34 17z m883 -109 c10 -86 7 -169
-9 -237 -22 -90 -107 -289 -126 -294 -9 -2 -23 -24 -31 -48 -8 -23 -19 -44
-24 -46 -24 -8 -58 190 -52 297 l3 65 51 13 c48 13 53 18 79 71 41 82 75 172
75 196 0 22 8 35 20 35 4 0 10 -24 14 -52z m196 45 c0 -5 -4 -14 -9 -21 -6
-10 -10 -9 -14 7 -3 14 0 21 9 21 8 0 14 -3 14 -7z m-70 -103 c10 -41 9 -54
-3 -80 -15 -29 -15 -31 13 -45 27 -14 28 -18 35 -117 4 -57 10 -131 14 -165 6
-52 5 -63 -8 -67 -12 -3 -10 -6 7 -11 23 -8 29 -34 13 -51 -6 -5 -5 -27 1 -55
6 -26 7 -55 3 -65 -5 -11 -9 -23 -9 -28 -1 -5 -16 -16 -35 -23 l-34 -14 7 41
c8 50 3 59 -27 53 -15 -3 -33 -22 -51 -55 -24 -43 -31 -49 -52 -44 -22 6 -23
4 -13 -12 9 -15 8 -24 -6 -45 -21 -32 -31 -34 -38 -6 -5 17 -9 19 -26 10 -30
-16 -51 -13 -51 8 0 22 25 45 40 36 5 -3 10 -1 10 4 0 6 -9 11 -20 11 -11 0
-20 5 -20 11 0 20 69 216 108 304 21 50 47 117 57 150 9 33 24 78 31 100 11
32 22 122 24 203 0 28 19 0 30 -48z m-795 -6 c18 -27 16 -62 -7 -133 l-11 -34
-13 33 c-19 44 -19 160 0 160 7 0 21 -12 31 -26z m-155 -43 c0 -10 7 -32 15
-47 8 -16 15 -38 15 -49 0 -32 35 -147 66 -215 29 -65 26 -97 -10 -94 -9 1
-16 1 -16 0 0 0 5 -17 11 -36 15 -50 20 -108 9 -115 -6 -4 -5 -14 3 -26 10
-16 9 -21 -3 -29 -12 -8 -13 -13 -2 -30 7 -11 8 -20 2 -20 -8 0 -40 51 -40 65
0 3 7 5 15 5 8 0 15 5 15 11 0 6 -9 9 -20 6 -11 -3 -20 -1 -20 4 0 5 7 9 15 9
20 0 19 26 -1 34 -28 11 -33 7 -40 -29 -5 -28 -10 -34 -24 -30 -16 5 -18 1
-13 -35 3 -24 2 -40 -5 -40 -14 0 -22 25 -22 67 0 27 -3 34 -15 29 -17 -6 -17
-7 -18 54 0 25 -4 47 -8 50 -4 3 -3 25 1 50 5 25 14 106 20 180 10 122 26 223
37 243 9 15 33 6 33 -12z m1148 -38 c27 -72 26 -123 -3 -123 -8 0 -25 -14 -37
-30 -20 -27 -23 -29 -29 -13 -4 10 -5 33 -2 51 3 20 1 32 -6 32 -6 0 -11 6
-11 14 0 9 12 13 36 12 41 -1 57 19 25 29 -12 3 -21 14 -21 24 0 40 33 42 48
4z m-908 -57 c12 -14 42 -34 66 -46 48 -22 49 -26 45 -130 -4 -85 -29 -288
-37 -301 -7 -12 -53 63 -54 89 0 7 -10 34 -22 60 -15 31 -22 63 -21 95 1 39
-1 46 -12 37 -10 -9 -16 -7 -24 9 -16 28 -14 33 9 19 25 -16 46 2 35 29 -5 10
-8 21 -7 24 5 28 2 80 -6 107 -13 38 -4 41 28 8z m-465 -36 c4 -6 14 -9 23 -8
10 2 17 -4 17 -12 0 -10 -12 -16 -32 -18 -30 -3 -33 -1 -33 22 0 26 14 35 25
16z m719 -130 c1 -14 7 -34 12 -45 6 -11 14 -41 17 -67 4 -26 16 -68 28 -93
24 -52 20 -63 -16 -47 -35 16 -34 -11 3 -43 20 -18 34 -23 55 -19 38 8 41 -10
15 -90 -30 -88 -55 -109 -137 -110 -52 -1 -61 2 -65 19 -5 16 -8 17 -15 6 -15
-24 -25 8 -23 78 2 61 10 109 33 201 5 19 13 62 19 95 6 33 15 71 20 85 4 14
14 54 22 89 l13 65 9 -50 c4 -27 9 -60 10 -74z m-732 46 c-4 -22 6 -20 29 7
l19 22 -3 -25 c-4 -35 -17 -52 -34 -46 -9 4 -22 1 -29 -5 -16 -13 -17 -6 -8
40 7 32 32 39 26 7z m48 -66 c0 -5 -4 -10 -10 -10 -5 0 -10 5 -10 10 0 6 5 10
10 10 6 0 10 -4 10 -10z m90 -209 c0 -11 -5 -23 -10 -26 -8 -5 -7 -11 1 -21 7
-8 7 -14 1 -14 -15 0 -23 28 -16 56 7 29 24 32 24 5z m17 -177 c6 -17 -27 -26
-43 -13 -8 6 -14 16 -14 21 0 13 53 6 57 -8z m1070 -46 c-3 -8 -6 -5 -6 6 -1
11 2 17 5 13 3 -3 4 -12 1 -19z m-235 -90 c-9 -9 -12 -7 -12 12 0 19 3 21 12
12 9 -9 9 -15 0 -24z m-316 -24 c4 -14 2 -30 -4 -36 -14 -14 -52 12 -52 35 0
10 4 16 9 12 5 -3 12 -1 16 5 11 18 24 11 31 -16z m-136 -114 c0 -5 -2 -10 -4
-10 -3 0 -8 5 -11 10 -3 6 -1 10 4 10 6 0 11 -4 11 -10z"/>
<path d="M1510 3155 c0 -8 5 -15 10 -15 6 0 10 7 10 15 0 8 -4 15 -10 15 -5 0
-10 -7 -10 -15z"/>
<path d="M1715 3110 c-3 -5 -1 -10 4 -10 6 0 11 5 11 10 0 6 -2 10 -4 10 -3 0
-8 -4 -11 -10z"/>
<path d="M1685 3080 c-3 -5 -1 -10 4 -10 6 0 11 5 11 10 0 6 -2 10 -4 10 -3 0
-8 -4 -11 -10z"/>
<path d="M2320 3030 c0 -5 9 -10 20 -10 11 0 20 5 20 10 0 6 -9 10 -20 10 -11
0 -20 -4 -20 -10z"/>
<path d="M2365 3000 c-19 -7 -19 -8 -2 -15 10 -4 23 -3 29 3 14 14 -3 21 -27
12z"/>
<path d="M917 2980 c-60 -47 -73 -127 -37 -224 25 -66 77 -116 121 -116 42 0
45 20 10 82 -39 69 -40 115 -5 157 34 40 77 42 116 4 15 -15 28 -33 28 -40 0
-17 15 -17 29 1 10 11 10 20 0 38 -31 61 -99 102 -187 114 -39 5 -52 2 -75
-16z"/>
<path d="M2626 2434 c-4 -11 0 -15 16 -12 12 2 23 9 26 16 6 18 -35 15 -42 -4z"/>
<path d="M646 2165 c-11 -8 -16 -15 -10 -15 5 0 18 7 28 15 11 8 16 15 10 15
-5 0 -18 -7 -28 -15z"/>
<path d="M677 1595 c6 -17 25 -15 31 3 2 7 -5 12 -17 12 -14 0 -19 -5 -14 -15z"/>
<path d="M1206 1086 c3 -8 12 -17 20 -20 12 -4 12 -2 4 14 -12 23 -32 27 -24
6z"/>
<path d="M2555 1091 c-9 -16 3 -31 26 -31 14 0 19 6 17 17 -4 20 -33 29 -43
14z"/>
</g>
</svg>
